/* XPM */
static char *ea3218dd9d08449f8d682ca3dda1472e[] = {
/* columns rows colors chars-per-pixel */
"13 20 94 2 ",
"   c #A6000A",
".  c #A5000E",
"X  c #A6000E",
"o  c #A7000E",
"O  c #A6010F",
"+  c #A7010F",
"@  c #A8000D",
"#  c #A8000F",
"$  c #A50010",
"%  c #A50011",
"&  c #A60010",
"*  c #A70010",
"=  c #A60011",
"-  c #A70011",
";  c #A60111",
":  c #A50310",
">  c #A70012",
",  c #A80011",
"<  c #AA0011",
"1  c #A80012",
"2  c #A80112",
"3  c #A90112",
"4  c #A80A18",
"5  c #AA0C1B",
"6  c #AD0E20",
"7  c #B3212C",
"8  c #B2252E",
"9  c #B32030",
"0  c #B92F3E",
"q  c #B7333E",
"w  c #B8303C",
"e  c #B8323D",
"r  c #B8313F",
"t  c #B9313F",
"y  c #BA323E",
"u  c #B73340",
"i  c #B73541",
"p  c #BA3141",
"a  c #B93240",
"s  c #B93241",
"d  c #BA3643",
"f  c #BA3745",
"g  c #BC3E49",
"h  c #BC3E4A",
"j  c #BF4250",
"k  c #BF4552",
"l  c #C0444F",
"z  c #C04651",
"x  c #C34F5A",
"c  c #CE6E7A",
"v  c #D4848D",
"b  c #D5858E",
"n  c #D8929A",
"m  c #DFA4A8",
"M  c #DFA4AA",
"N  c #DEA7AC",
"B  c #E1A3A8",
"V  c #E0A3AA",
"C  c #E0A3AB",
"Z  c #E1A4A9",
"A  c #E0A5A9",
"S  c #E1A4AB",
"D  c #E0A5AB",
"F  c #F0D3D7",
"G  c #F1D7D8",
"H  c #F0D7DB",
"J  c #F6E3E5",
"K  c #F8E4E6",
"L  c #F4E5E8",
"P  c #F7E9E9",
"I  c #F7EFED",
"U  c #F8EAEA",
"Y  c #F8ECEE",
"T  c #F9EDEF",
"R  c #F8EFF0",
"E  c #F9F0F3",
"W  c #FAF1F2",
"Q  c #FDFEF9",
"!  c #FDFCFA",
"~  c #FEFFFB",
"^  c #FDFFFC",
"/  c #FEFEFC",
"(  c #FFFEFC",
")  c #FEFFFD",
"_  c #FFFFFD",
"`  c #FFFDFE",
"'  c #FFFDFF",
"]  c #FDFFFE",
"[  c #FCFFFF",
"{  c #FEFEFE",
"}  c #FEFEFF",
"|  c #FFFEFF",
" . c #FEFFFF",
".. c gray100",
/* pixels */
"........L k 5 n ..........",
"........c - 2 5 F ........",
"../ ../ i - -   N ........",
"../ ....i - - - B ........",
"../ / ..q o o o m ........",
"........q o 2 - B ../ ....",
"..! ..[ u - - - C ........",
"........s o o - M ........",
"....! ..y - o - B ....[ ..",
"../ ..[ y - - o M ....../ ",
"........s - - o M ../ ....",
"........y - : - M ../ / ..",
"Q ......s - - - m ......! ",
"v 7 q q 4 2 o - 7 u w 7 v ",
"I j 2 - - - 2 - % - - k I ",
"..W k - o 2 # - - - k R ..",
"....I g - o 2 o - g Y ....",
"......P i o 2 2 f U ......",
"........J 0 - w J ..../ ..",
"..........G x H .........."
};
