/* XPM */
static char *_b08dc98719e4814a3fed9869c77ae8e[] = {
/* columns rows colors chars-per-pixel */
"13 20 2 1 ",
"  c #A7A500000FCC",
". c None",
/* pixels */
".....  ......",
"....    .....",
"....    .....",
"....    .....",
"....    .....",
"....    .....",
"....    .....",
"....    .....",
"....    .....",
"....    .....",
"....    .....",
"....    .....",
"....    .....",
".           .",
".           .",
"..         ..",
"...       ...",
"....     ....",
".....   .....",
"...... ......"
};
