/* XPM */
static char *_115d748f9e94f93dee5348435a8dab7[] = {
/* columns rows colors chars-per-pixel */
"20 13 93 2 ",
"   c #A3010E",
".  c #A2000F",
"X  c #A6010F",
"o  c #A7010F",
"O  c #A8000F",
"+  c #AA000F",
"@  c #A50010",
"#  c #A50011",
"$  c #A60010",
"%  c #A70010",
"&  c #A60011",
"*  c #A70011",
"=  c #A60111",
"-  c #A40211",
";  c #A70012",
":  c #A60112",
">  c #A90010",
",  c #A80011",
"<  c #AA0011",
"1  c #A80012",
"2  c #A80112",
"3  c #A90013",
"4  c #A80115",
"5  c #AA0918",
"6  c #A90A1E",
"7  c #AD0F1E",
"8  c #B2202B",
"9  c #B2212E",
"0  c #B3212E",
"q  c #B72F3B",
"w  c #B7333E",
"e  c #B9333C",
"r  c #B8303E",
"t  c #B8313F",
"y  c #B9313F",
"u  c #BA303F",
"i  c #B73340",
"p  c #B83140",
"a  c #B93240",
"s  c #B93042",
"d  c #B93243",
"f  c #BA3342",
"g  c #B93540",
"h  c #BA3644",
"j  c #BA3844",
"k  c #BB3F49",
"l  c #BC3E4A",
"z  c #BF434E",
"x  c #BE454E",
"c  c #BF4550",
"v  c #BF4552",
"b  c #C14452",
"n  c #C2505A",
"m  c #CE6E79",
"M  c #D4878F",
"N  c #DA9399",
"B  c #DFA3AB",
"V  c #DFA4A8",
"C  c #DFA4AA",
"Z  c #DFA6AC",
"A  c #E0A3AA",
"S  c #E3A2AA",
"D  c #E0A5A9",
"F  c #E1A6AC",
"G  c #F0D3D5",
"H  c #F1D7D8",
"J  c #F1D6DB",
"K  c #F4E4E5",
"L  c #F7E4E6",
"P  c #F4E6E6",
"I  c #F7E9E9",
"U  c #F8EAEA",
"Y  c #F8EEED",
"T  c #F9EDEF",
"R  c #F8EEEF",
"E  c #F9EFF0",
"W  c #F9F0F3",
"Q  c #FAF1F2",
"!  c #FFFBFA",
"~  c #FFFAFC",
"^  c #FDFFFC",
"/  c #FCFFFD",
"(  c #FFFEFD",
")  c #FEFFFD",
"_  c #FFFFFD",
"`  c #FFFDFF",
"'  c #FDFFFE",
"]  c #FCFFFF",
"[  c #FEFEFE",
"{  c #FEFEFF",
"}  c #FFFEFF",
"|  c #FEFFFF",
" . c gray100",
/* pixels */
"{ { { _ { { { _ { { { { ! M E { { { { { ",
"{ { { _ { { { _ { { { { { 0 z Q { { _ { ",
"{ _ _ { { { { { { { { { { y X b Y _ { { ",
"_ { { { { { { { _ _ _ { { f   X z I { { ",
"{ G Z C C F B C A A D F F 8 X X < j P { ",
"N 6 + < < X < X @ X + X 4 + < @ X @ y H ",
"7 X X @ X X < X < X 4 @ @ @ X @ @ < < n ",
"z X + < - + @ X @ + @ @ < < @ < < @ q J ",
"P m f w p w y y p y p y e 5   @ < f P { ",
"{ { { { { { { { { { _ { { p < < l I { { ",
"{ { { { { { { { { { _ { { t @ c Y { { { ",
"{ { { { { { _ { { { _ _ { 0 b Q { { _ { ",
"_ { { { { { _ { { _ { { _ M Y _ { { _ { "
};
