/* XPM */
static char *c4b81da571b5445ee603840d88b033eb[] = {
/* columns rows colors chars-per-pixel */
"20 13 2 1 ",
"  c #A7A500000FCC",
". c None",
/* pixels */
"....................",
".............  .....",
".............   ....",
".............    ...",
".............     ..",
".                  .",
"                    ",
"                   .",
".                 ..",
".............    ...",
".............   ....",
".............  .....",
"...................."
};
