/* XPM */
static char *_f4f88d9251c4d1fa5376364e22e06aa[] = {
/* columns rows colors chars-per-pixel */
"64 64 86 1 ",
"  c #3E3935",
". c #3F3F3E",
"X c #433E3A",
"o c #44413E",
"O c #49443E",
"+ c #464443",
"@ c #4A4643",
"# c #4C4946",
"$ c #4D4C4B",
"% c #514B46",
"& c #514E4C",
"* c #4F504F",
"= c #53514E",
"- c #59534E",
"; c #504F50",
": c #4F5050",
"> c #545353",
", c #595654",
"< c #575857",
"1 c #5B5956",
"2 c #575758",
"3 c #585758",
"4 c #575858",
"5 c #5C5B5B",
"6 c #615C57",
"7 c #615E5C",
"8 c #5F605F",
"9 c #64615E",
"0 c #68635E",
"q c #5F5F60",
"w c #605F60",
"e c #5F6061",
"r c #646363",
"t c #696664",
"y c #6C6966",
"u c #676768",
"i c #686768",
"p c #67686A",
"a c #6C6B6B",
"s c #716C66",
"d c #726E6B",
"f c #73716E",
"g c #6E6F70",
"h c #716F70",
"j c #6F7071",
"k c #747373",
"l c #797673",
"z c #7B7976",
"x c #767778",
"c c #77797A",
"v c #7C7B7B",
"b c #817E7C",
"n c #83817E",
"m c #7E7E80",
"M c #807F80",
"N c #7F8082",
"B c #848383",
"V c #888784",
"C c #8A8986",
"Z c #868688",
"A c #878889",
"S c #8C8B8B",
"D c #918F8D",
"F c #92908F",
"G c #8F8F91",
"H c #908F90",
"J c #8F9091",
"K c #949493",
"L c #989796",
"P c #999897",
"I c #969798",
"U c #97989A",
"Y c #9B9B9C",
"T c #A1A19F",
"R c #9E9FA0",
"E c #9FA0A1",
"W c #A3A3A3",
"Q c #A7A8A7",
"! c #A8A8A7",
"~ c #A6A6A8",
"^ c #A7A8A8",
"/ c #ABABAB",
"( c #AEAFB0",
") c #AFB0B2",
"_ c #B1B1B3",
"` c gray72",
/* pixels */
"%%@>aWF<%@rKRC<KW/W/n*XXO%#O&<<5t<K!/b67>3=;B~9,Y!7<uv1;dl<@&>1-",
"r>$#fDf-@$:lB5%V!(/~v,>ajhr615ta15,yd66,5>=2tCK7yKa<6&&2++rw#@&<",
"Z>ax17@*2$#+##$wY//F-ay=t6#&557565i>2q,=>32&%,zy=6&5t7>5-&aM=vKG",
"n>GIr#;25$NZr&$#VWY7#AVr@=3r5155r5w535q533*;5<6&<<6&rs<$3;%=;d~~",
"9aY~v5rxg#61&@$$#=9#>JF1>>$,5r5re5tr355q>>2pBI75srr9=#&:ir=km-yI",
"#kbzl#mZ6>77=*$###@+5KB9*:<5kr555=5at2>5ht&tEl1<1575ww5&o%cY/S=1",
"##$,,=@O5I~Yr>;;:$$#=1S,2>:wS67w55$rjuZl@-5&0&3>=&5555525<zzbby@",
"e>>AF9@*1I//7:2:*><5C5,>a535,5t55>5%<G/H=555#r52=$<553$%#=XOO@o5",
"k5;as&;%*7KF,*>;5@&5Yv>JEFtaZt&qa5>=5~!n,vcy,<=3:=$alvl>#2>>eZtr",
"Br>##5c<>#==@7kZr>+5V9tKY~llWy>51,#*@v!b=6,$=<ww:*+kRHa,:55;:Z5*",
"kB2#3mv&>#$>#X%lZ5>#%#o@=05fl,###@&cv-fn#o=5<=535q>&t%<55qtq#,1#",
"&#25+t=cSS>t;*#oO1::$trt5,&%O,qr52m/WF%%>;*,3#5wZIz53MYS2rap5#>>",
"%gSAy#>>LT5xa#+*>rj7aIUB9=,=57qka5I/_/F<3avSGa=lI/C=BE~Ku@=5vUn>",
"=Bv6+>4&yL1cn*5jZYWltl9@=>5:<,1t75K/WLk&aSDYK1w@7KU-lPWVr##vUV6*",
"y$@&>+54&l6vk5ZY//Pa@#$$>>5a555bKy-bnt&>#$---=17-&t%&1t95@+%9=#e",
"G##$;*#5>==9=uEWW!C9v5::>4>51j5tl1#&5lr=5<$&@;&@+2d$>d%5j**=@*rZ",
"W73552*#8$$#+*zFTI1F(F18req>,6k,#;:5==@>1r#*2tvt>NYt.7#tx&*v55GR",
"B&#rr55>=:<55<1=--xW(~9$rare5:97rrr*@$5=+<>5#uYlwR/v$@*&y>>Ad>K~",
",vc=r5lv1:55=:cUn&SWKzt,#t5ret*5r2#>>qhar+>r55k@=lWB&aj5X;+&,$AS",
"vYI9:A/Yr>4:>>vWn&t9%@5,:*5q5e5&&*;=r5zHl<>a5>&57%k0;Cb6+5j7#oa,",
"WWC3qY!9=>45>5vYr>+#=*$&55apet5,5>>rMb&kKy3<<k7#75%#$1$1r%fAy#>>",
"b/n&#70==55>5>t75t###*>55:>t5r<55w>a!/B$t-17&cv6#&*t&2cUGa@==@l<",
"=n,&=;==*c5557=td#4>35u>>5cIZB&425r5/(C<#>=<#==&>#vWt5Y/W7*vk@il",
"tX*xS5#5>yt2jB&@o>>2d=&<57S/`S=55=>*-7-k5;&#55#&><akt&I!C1#db<$Z",
"6a=O,%>ru1<>kC7>*;;5Sb<t=5GLCz=555at>vEUr>*qBMka2><,=*0V1&*=lt+x",
"*AGl,$:tj$&$6,35=#>:dl1=*166&%>>2qhaj//WBa*1fsyt&dIEl59152>*<7$#",
"@%lIZ1;=a5wt<<5r2@#*>$=+$=5wug<>>5r,0TWLb=#&=&&#==b)B1aj=<2:$=;#",
"l@#,z>*>@:SWYKw,$@5mKIt*@&BIKWt5**&r,-&--*e=iSx=e=%0s5=>>&,32$#v",
"Wv7*X,##>#$bKDylmr%U_/7#*&%VRUt<;2qSl>#>25jr$An<rr5:,4555<>6rv5j",
"UEKk<@7a=<tXO%dW^Ry7YK#;;5$@6-@,*$5UV=2>ervz<6l6r5q->trr555$7Fv1",
"Z/(_d3~Wyo%<9&vWEPC-tl=+$2=qdi2++4lYj5eq5>+,1@=jr5>>855aa559aYY&",
",W!K5aKn5=;+=f1yr77=%$@&@3ZY)/k@$:vPk5g>>x7=5;tIBqqqr5>1rrq7%yn,",
"5t96*&&-=5a<5Ia#@&5>>>5a>aE///C$:316155$,dft5$%1615r555t551>>,=5",
"6<SUa+&:2$a,wTb#+++o.gELc%6A~B=+rSKB<bt=7>=%>5rart5>,rejl5>5447k",
"$a!!C=>21<@,=15;>2>>1y~~f#=%-=ll*fbl&a6#yFSdq5aI~C>>eq7aRy55>>@X",
"d&nKG752#=5Ml$@=txa*5*kl=>11>FWH&X X-+$2@aY/ktj~Qf5r5qr=1995q55k",
"S$X%1&5*35=v15,$+%==e*#X*#++5~/B=aa55t:q5$yz,=yKV9c9a58rr35bj=tE",
"7,3-$#>5gw2w<a,5vg73a&$>&;#*a//B*BL65h&&5t$&*55t,rz,e924ut=LTh#d",
"&55:>>;21-2@rc=rYUt#>r;>;:$2<ds1&AY,rr5>&=55ear>151555q5>=6$yb5#",
":552>2>uh7>y,&&uV,=*kYN:$>:>%7tk5-t$@&:>>>55==*5<tn755:15ar1$@&2",
">5r5:2<ab,@jBr$*@5a>aLH,2eq#+I~Ld#;25>rq2re54>5225l7wSgrtd52>5*@",
"5r2*5=>1%&;#CF5+lYSt>Af1l~G5+vPn%$>qx5>a:vye555>=%+*a)_k+X=5;*xr",
"r&t7$<r2>2*@rl&orG/A*7-&Bz,#>=d=&>2gKF5@=Bcr5>5>5qaa&ZLsrttq2aU/",
"txEIt5KG,&;>o15>XcYF5o,&&##555&>a5;cR~f>=1t5r555qBYHt=y=3ZGk>B/Y",
"-D/Tt5EF<cBk<aGx,$S7<*X%*&::5tv5r%$mRKttct=BIZfrg)_H0*,=%,sf*v_n",
"#-bP17WB6ILS0dWKI6@5Bd$5a+::5vH1+#@@,=lFv-,aW~K15l6=>>a7>2%@=ad&",
"i=Xt<&bfrzl7-rITEK=YYa#g~Z55qj==2>g~Ktdb,=5,-%%1l5tz537f3**<>r7#",
"7Sr+#@X%&oX o>bSSf2WF5qJ//l5>%5#@5U//l<=%=2:5y1>Kk&t=5%#=>*$BRV#",
"@t6###:+*$#+$##55+#zd=*A/Tf=$&%;q>S/_S&#$2q:=+#*CV=@>>4*#>5>lP/k",
">@+@#>;+;>*:eja#+#+oo@++dl6a$*5ra#d//C,>>eu#+$>:tz>#:q55*;B9&6FC",
"#>2$2rw;rl2+AIG>eB7o@+#+=@aB>rp5#*%H/K<>$>w@>5gt+%$*$$=5@$IWv,&-",
"qe$$@,rwuS5+Z~K,aK5*teru>=1=>#%>qua%y=,*$+>t#2t#t=#>glv,@+JUn5#&",
"xS5Mdr;@kD,*,lz<,%$+aYI9>cMr=5q5=&X,9KU,::GKro>cRRa@%OO>r&Bs==:>",
"gBtEWRTaX+5ar&+&rAt+#ld=aIB&,5t5>2>,r~Y1:;v~H>l/WUketar$wt#+=>:5",
"a1=C/Yb#&kI/YIa-zHYa+@+7<VB55>=154>=tRI<@35Ul,ZKFz1v~YIy@t>ul5>:",
"=<t1KE%##hFHbb1X@-BZ3jBt&&7-5>7555557nV>+%*6-&bc5@@lY~Yz&@;IC5>*",
";#%@0f+*;#@%+#+>>+@65MIAt>kt5y555eaxj=,,<r&#xa%#++$9dys1#$;cB,$*",
"45#>$&jZAr>57>@avt>XX%%@+&jv>=4q2ur,$kb=1r@iIf>aa1+ooX@$:$*=9ae#",
"##;rl#I/Wb#AN@+qYUa5qBj>>><%5w5er>2rtZ~9$+*rUd@A~K8+=,q5+4mtZ/ar",
"4#><%>B/!C&iB+:#S/WljYt>25=uz75t55&%1L/a5l5@0,>IEB,#+ZCzq+j%6IYt",
"5*#+:25IPH::7$4+aZB1lD55>a5kt1r1,>><=zF5tI6$++>fs6**#B/nr*#ra9FC",
"$:>:>2>16=*#@+$++=#Xtz<5&==&>5558reqr#%=yS<>q>#&,:#e>>AKt$>JB&-9",
"9:5>>$%9a=:$cr...$+++&$;3BSteeety5jBWc5,%=>#%+5YRS5=+$%&>2=Fk#tz",
"Z>5:#rw#jt$k^I5mRYJB=+&gBCVBtr>,=5A__U995>5>aj#B/W9#>la>jZ=951ZK"
};
