/* XPM */
static char *f939ba9b82e24174e0bc65127818b771[] = {
/* columns rows colors chars-per-pixel */
"64 64 175 2 ",
"   c #23222E",
".  c #242534",
"X  c #262837",
"o  c #292937",
"O  c #262738",
"+  c #262A3B",
"@  c #2A2C3C",
"#  c #312F3D",
"$  c #2F313E",
"%  c #272F41",
"&  c #2A2E41",
"*  c #273347",
"=  c #2B3244",
"-  c #2B354A",
";  c #273B4E",
":  c #2D3A4D",
">  c #313545",
",  c #363946",
"<  c #31364A",
"1  c #333B4C",
"2  c #3B3D49",
"3  c #2C3752",
"4  c #2D3C53",
"5  c #2E3E58",
"6  c #323D52",
"7  c #31404E",
"8  c #2D4255",
"9  c #2E445B",
"0  c #2D495D",
"q  c #324255",
"w  c #384151",
"e  c #32455B",
"r  c #39455B",
"t  c #32495E",
"y  c #3B4A5E",
"u  c #2D4761",
"i  c #2D4C64",
"p  c #2E4D69",
"a  c #334660",
"s  c #334C63",
"d  c #3A4C63",
"f  c #334D6A",
"g  c #2D5266",
"h  c #2D546C",
"j  c #2D5A6D",
"k  c #335166",
"l  c #3B5166",
"z  c #33546C",
"x  c #3A536B",
"c  c #335A6E",
"v  c #3B596E",
"b  c #2E5671",
"n  c #2E5C73",
"m  c #2F5E7A",
"M  c #335672",
"N  c #395671",
"B  c #325B74",
"V  c #3B5B74",
"C  c #325778",
"Z  c #335D7B",
"A  c #3A5E7A",
"S  c #2E6275",
"D  c #2F647B",
"F  c #2F697D",
"G  c #326276",
"H  c #3D6176",
"J  c #32637C",
"K  c #3B647D",
"L  c #32697E",
"P  c #3B697F",
"I  c #434E5D",
"U  c #435364",
"Y  c #4A5567",
"T  c #43546B",
"R  c #4A566A",
"E  c #445A6C",
"W  c #4A5A6B",
"Q  c #515C6E",
"!  c #435D73",
"~  c #4B5C70",
"^  c #425F78",
"/  c #446276",
"(  c #4C6375",
")  c #43647B",
"_  c #4C647B",
"`  c #42697E",
"'  c #4A697F",
"]  c #516375",
"[  c #53667A",
"{  c #546B7D",
"}  c #586C7E",
"|  c #3A5F82",
" . c #2F6780",
".. c #2F6B81",
"X. c #336583",
"o. c #3A6483",
"O. c #336B84",
"+. c #3B6B84",
"@. c #346689",
"#. c #3A6789",
"$. c #346C8B",
"%. c #3B6C8A",
"&. c #327186",
"*. c #3B7086",
"=. c #34728C",
"-. c #3A728B",
";. c #366E92",
":. c #3B6E91",
">. c #367493",
",. c #3B7493",
"<. c #367995",
"1. c #3C7995",
"2. c #377599",
"3. c #3B749A",
"4. c #377B9A",
"5. c #3A7B9C",
"6. c #397DA2",
"7. c #3A7EA8",
"8. c #426682",
"9. c #4A6780",
"0. c #436B83",
"q. c #4B6C84",
"w. c #416D8A",
"e. c #4B6F8A",
"r. c #546D82",
"t. c #526F89",
"y. c #437185",
"u. c #4C7185",
"i. c #44738B",
"p. c #4C748B",
"a. c #47788B",
"s. c #4C788E",
"d. c #547185",
"f. c #597284",
"g. c #53748B",
"h. c #5A758A",
"j. c #54798D",
"k. c #5C7A8D",
"l. c #406F96",
"z. c #437493",
"x. c #4B7591",
"c. c #447995",
"v. c #4B7A94",
"b. c #417699",
"n. c #437C9B",
"m. c #4A7D9B",
"M. c #537693",
"N. c #537B93",
"B. c #5C7D92",
"V. c #517D99",
"C. c #437EA0",
"Z. c #3A819D",
"A. c #3A82A4",
"S. c #3B85AB",
"D. c #3B8AAD",
"F. c #3B86B0",
"G. c #3D8BB3",
"H. c #3D8EB8",
"J. c #3F91BA",
"K. c #45819D",
"L. c #4B829C",
"P. c #568096",
"I. c #5C8295",
"U. c #54829B",
"Y. c #5C849B",
"T. c #5C889D",
"R. c #61869C",
"E. c #618A9C",
"W. c #4D83A2",
"Q. c #4F8AA3",
"!. c #4B86A9",
"~. c #5187A4",
"^. c #5E8CA3",
"/. c #618CA3",
"(. c #6093A9",
/* pixels */
"J P s.y.d.i.i.N.N.m.,.O.h b J i * 0 g j g k @ 8 j : X 9 Z @.Z X.=.$.l i @ 0 >.1.A.L.V.r.g.x.q.q.o.n k g 0 g n S j h 9 p 9 h O.F ",
"n P g.p.+.G p.p.p.*.=.=.J n b ; ; g j g : o - g c t - * + a Z g S q = X X - J >.=.K.L.W.n.:.o.i.p.J g l z c g n h h h 9 % 9 ....",
"n 0.s.u.c c H ) o.J J L J X.i + @ 8 8 e s 8 - 8 n  .X.M = * X.z z * g @ e k Z G *.K.Q.W.z.y.y.M.e.0.P 0.p.8.c j b n p 3 5 s J  .",
"B a.N.g.P V Z K 0.K O.=.$.X.C 5 4 8 8 g j c ; o 7 0 0 g = t b s e 9 h ; z v e - K 5.U.v.%.J O.8.t.t.r.( { 9.G j n j h p i n  .D ",
"s.P.B.h.h.t.0.P 0.o.$.1.>.X.X.Z b p b C J m b u 8 i a @ 9 e + 6 j z b 6 1 z =   + / i.y.H k J ) r.h.f.[ t._ n k b b b n  . .D %.",
"a.P.k.[ { h.g.o.K J J J X. .J Z h i 5 h i h n @.Z $.,.B z Z g q 0 * * + b N @       # 7 > o i +.h.h.h.} g.9.V g b m m m $.=.J O.",
"P.Y.B.[ ] h.u.G J O.X.O. .D B 8 3 5 % O . u @.X.@.O.X. .J Z h 5 A 3.#.+.%.J - o . p t ; + . = B 8.d.h.r.g.q.v M m m  .Z m J L y.",
"j.B.k.r.h.R.u.J O. .X.=.5.3.b & . O   % - p X.X.@.O.z c e : X B 6.n.5.i.0.H * @ & Z O.$.B J 8 @ q ) h.r.M.:.l i n b b h b b *.y.",
"i.s.P.E.E.Y.p.Z D J G L =.2.-.s 3 + & & 4 f X.@.X.g 6 s Z g - c s.I.B.d.u.N = 8 9 b X.$.;.>.t & s o.N.j.q.%.z 6 i h b u u u @.;.",
"O.+.N.T./.E.j.P J >.>.O.` s.,.J 4 @ - & Z f 3 u i q C $.$.O.f P U.T.Y.j.e.| a 3 ; % - i B g X e +.O.P y.K i 5 ; 8 h b 5 u C X.@.",
">.+.a.s.u.N.g.Z O.>.4.,.j.j.*.s & O - e k : = - = e B J X.X.c o.L.L.c.L.x.3.%.= . 6 t = + & k #.@.B 9 t : 9 i 9 i b b u u  .Z X.",
"=.K 0.w.5.n.6.$.O.;.=.w.N.I.i.B 6 5 @ + = h J #.C f e t g Z f b ,.1.5.n.m.3.o.x x @.B : 5 A b.x.:.N * @ + ; u C  . .p b p b | X.",
"L P V ,.;. .m $.X.;.1.u.I.R.B.*.4 5 & f Z <.y.u.w.z.#.f 1 : - u @.+.X.#.:.n.z.z.e.e.w.N f Z J 0.p.A - X 3 O 3 C X. .p u p p @.@.",
"O.J K -.@.p 3  .X.2.n.v.Y.I.B.v.#.5 5 3.2.>.N.I.h.p.M.:.o.e e | 3.:.6.;.$.w.m.U.B.V.v.$.J e k %.s q 6 & x 5 = 5 | @.@.b p C @.@.",
"$.O.O.+.@.p p m J +.y.g.B.B.k.p.:.f f 6.1.i.u.j.j.h.p.u.K Z @.:.e.0.l.C.b.b.c.U.Y.m.c.N : + 6 N = z $.C 3 a #.a 3 X.|  . .X. .X.",
";.;.,.:.X.C Z X.X.P *.p.s.j.p.w.;.#.@.>.:.m.v.N.v.p.y.u.+.A o.M.B.j.s.w.C.n.V.P.~.V.m.A - - & 3 f C @.>.f < 8.u 3  .b X.X.@.@.@.",
";.2.3.@.Z C m X.X.Z X.+.,.:.-.,.;.3.3.:.b.c.b.c.C.l.z.l.w.) ) r.k.j.p.0.-.c.P.Y.T.T.V.o.8 p 5 C | p C m - < 8.x - 3 5 p X.@.@.@.",
"@.@.@.O.$.X.m ;.,.@.J D X.O.;.3.:.X.J #.:.c.b.b.5.%.X.C #.x.o.P 8.q.w.w.:.m.Y.I.B.P.N.8.8 u u p p - . - @ ) x.x.x.r & & p @.@.X.",
"| C b B X.J C m J O.*.O.@.%.%.$.%.;.@.$.$.$.@.#.K f a X.| Z | #.8.u.8.o.P 0.B.B.P.Y.g.o.t C X.C p 3 O   1 p.M.B.B.q.T < u @.;.;.",
" .m Z x l X.@.@.Z J ) J X.P ) K $.;.l f X.Z a i u N 5 z Z Z B z q.h.q.) K 8.g.M.N.B.w.a N X.@.@.X.p % & X ! u.R.R.p._ < p ;.@.@.",
"M J b d y v D C S H ` ` / { } ` %.%.K f t t i O. .O.e N B n A B ` ) ^ v ! r P w.w.e.V f @.X.@.$.@. .p ; 3 - / ^.T.U > p @.@.$.m ",
"X.@.J l R U c b c v ( ! } h.h.u.%.z e : a f X.@.L L s ) %.Z | C e * & = < 8 q t z x N s @.2.;.;.X.C Z 5 f u w T.g.= 8  ... ...m ",
"O.$.@.| 8.y I v c H E W ( j.d.u.z.t * z J P L L O.O.e Z @.#.b < @   - 0 @ 0 i = e i : 1 f | 3.;.@.C 3 p C p = : r $ ..>.D @.2.>.",
"X.m X.Z J z W f.( H G P W { { { i.d 4 O.O.J G J G <.z Z Z +.K : @   + : @ - 8 & l X O l e.d Z #.X.b i n X. .8 . . & Z 2.$.>.7.>.",
"1 a z @.o.Z W h.} W K ` ( f.] ( B x 8 =.<.-.O.O.=.P c y.P ` 0.l ; - o . X < 1 : A x ^ M.I.g.q Z X.m X.J J J b & @ V $.4.A.6.6.;.",
"s o.@.3.6.A ] f.] W / P { [ [ ` J s i $.S.G.Z.<.-.V s.T.I.h.j.0.o.K O X a V 8.s x A q.r.h.h.l 9 b m  .J  .X.B - q g X.2.6.6.>.5 ",
"3.2.>.;.6.) I ~ ^ K H o.p.e.p.-.J s f b B B c z c y.T.k.k.B.B.h.d._ ; : ! 8.q.d s d r.r.t.h.T @ 5 C $.$.$.$.X.: 6 6 U t h M 9 N ",
"$.X.X.;.:.C.z.l.:.J J +.%.O.%.,.X.d p - : 5 f +.u.E.I.E.I.k.k.k.k.t.q.q.g.q.^ N & & q.' r._ 5 5 h X.;.>.>.=.X.a q , _ $ @ $ > $.",
"O.X.$.>.4.>.>.2.O.o.X. .J p n %.o.d j 0 ; X.1.Q.(.^.T.^./.I.B.k.k.k.k.k.B.g.8.5 5 r _ r : 9 h C @.$.>.<.4.3.X.g 6 y 2 < q = z O.",
">. .X.....$.:.O.;.$.$.$.b p g n G l n n 9 e v p.s.1.c.v.p.c.U.N.B.I.I.R.Y.g.T > x q.W q n D X.@.6.>.>.6.6.$.8 $ , T , A Z N ..=.",
"$.$.>.$.$...$.D X.$.O.Z @.X.p c n l n F 0 : 9 t : 1 6 1 : N i l j.B.B./.V.T f $.N d e b @.O. . .=.=.$.>.>.O.a $ > > l c s s 8 n ",
"=...J D $...n X.h g b D S S n z k s n S s q s z : ; 3 4 @.1.@.s ' I.I./.T.! B 6.4.%.$.;.X.O.J D $.>.$.O...O.M t x c #.c e 1 > s ",
"O.S S m J n g n z h D D S S G J f h z f s a 3 : * 3 6 f 5.5.-.z / Y.B.E.Y.E G D.4.>.>.=.X.J J $.>.A.6.O. .m b z c Z $. .C 8 < z ",
"O.C n n n b J Z h D O.D S S G L +.D e h h N s M f N Z -.Z.<.>.V ! I.I.^.' 6 D O.6.4.$.>.m j b $.4.O.J O. .&.O.X.D X.$...S B c X.",
"J n S n n b h n Z J F F S G S S L A i h i b g X.$.>.Z.<.=.>.$.f > ! j.N.5 o.:.$.O.Z c M m D = c n q t @.A.A.6.2.$.$.O.$.&.D D D ",
"n m j n j M c h j n D F G F L L G M +.n J z C $.D J J O.O.<.$.#.o.1 < < 5 $.>.J c < $ > h Z Z f G y z O.H.G.4.=.$.$. .D D C n j ",
"n n S D n c n n n g n ..D G O.%.B O.,.O.L Z k O.P =.=.>.O.>.1.2.A 6 a a J B O.J M - # 6 k t h X.2.2.2.D.J.H.J.G.6.>.&.D n n j n ",
"n n n S G J j M z C J  .J X.J J J 1.*.-.y.%.#.X.*.O.=.>.>.O.$.4.3.| Z n n n L %.X.e > , w w d l 2.S.F.A.S.S.S.D.S.6.>...D n S j ",
"D D ..O.O.+.H J  .J m n B n X.J Z 1.n.s.d.h.m.o.4.J >.4.<.$. .O.2.@.f q g S F &.O.z d d x w w 2 ,.D.6.4.=.>.>.4.Z.Z.<.=...F S S ",
"..O.$.=.>.%.:.3.3.$.X.O.$.>.@.X.$.C.v.M.[ Q M.o.>.H J O.=.1.O.J =.O.o.A X.$.$.&.J @.B X.5.b.V J =.O.=.<.:.>.Z.4.<.4.>.=..... .D ",
"=.<.<.=.<.<.*.>.z.1.>.$.$.J m Z >.5.!.x.t.{ g.%.-.J K z.K $.%.X.O.=.=.>.A.A.<.=.X.F 4.>.=.<.4.>...&.=.=.<.Z.D.A.=.=.&.&...F &.F ",
"=.=.=.Z.A.A.$.P %.1.$.X. .Z n n P G D n u.h.x.@.1.4.6.6.5.>.$.+.$.O.$.O.=.=.=.n Z F F O...=.=.=.=.=.&.&...=.=.<.=.=.&.....F F F ",
"=...=.Z.D.S.4.$.>.<.$.#.X.X.O.O.O.X.$.O.0.p.w.$.1.2.,.@.$.;.O.J A f J O.O.>...X.$.=. .S D ..=.&.&.=...S F =.<.A.<.&...&...&.=.=.",
"&.=.=.Z.4.4.4.=.O.O.O.J X.$.$.>.2.5.4.>.$.P y.B @.D D N V V _ ! V E s D  .>.;.$.O.D M n n S F L S F F F ..>.<.4.A.Z.&.&.&...&.F ",
"......&.&.=.Z.<.,.O.L O.$.$.2.A.A.A.<.4.4.O.J P G  .G B o.w.e.0./ ! r C ..$.=.O.$.X.G J D n F F F L L <.&.O.%.*.-.>...F ......=.",
"F F ..=.&.&.&.>.5.n.5.>.>.>.2.<.>.<.A.Z.>.O.X.L  ...>.B v K K v v ^ d f n D j S J O.X.*.<.$.G F ..G ` =.>.+.U I E  .>.....&.D F ",
"=...=...=.A.<.=.<.S.H.4.6.6.4.>.<.<.=.<.O.G D ,.4.$.J o.+.A z C f d a d d h j g j j O.=.4.<.L L -.*.P *.F G U I / +.=.D D &.=.S ",
"=.&.F ..&.&.A.Z.=.<.<.=.>.>.A.6.<.=.=...X.-.*.J <.O...H b.y.z @.A f f T t g g g g j D <.Z.<.&.O.Z.Z.=.P *.+.U I 0.O...D n D =.<.",
"&.F S ..&.=.Z.Z.=.=.&.&.=.2.5.5.5.2.-.@.$.4.5.4.S.4.$.J B K o.>.@.f N N X.C C g h S X.=.Z.Z.Z.&.F =.&.&.L *.E E L &.=.L S S F Z.",
"&.S F =.=.-.*.=.=.&.=.<.>.2.2.6.F.7.S.5.6.6.6.A.-.>.=.>.@.#.:.3.#.A @.3.$.O.J D n n D n F L -.L S G F &.*.*.` P L L L L F F F L ",
"&.J =.4.Z.1.n.$.&.=.4.<.>.A.6.7.F.6.5.6.6.4.>.$.O.$.>.2.;.7.A.>.$.@.O.J D B k g o.n B v F L -.L L &.&.&.*.+.*.&.L &.F G &.&.&.F ",
"*.=.*.<.Z.n.<.=.=.&.=.4.4.6.A.A.6.4.%.$.;.#.9 9 ..$.>.2.2.5.5.>.%.$.J n j g c C %.$.$.K G F L L &.=.&.F L O.L F F G G G L L P F ",
"r.u.s.a.Z.Z.c.-.C.K.<.&...4.S.A.>. .*.:.;.>.%.@.m D ..>.X.$.$.$.>.;.@.O.#.@.| l.@.X.J Z L S G L &.F G L =.D n S S S S S S S L ' ",
"{ { d.s.n.n.c.v.-.1.<.&.>.<.4.4.*.L O.+.X.@.X.J Z n n n n D J X.$.3.3.;.;.#.A V T A V ! P L S F G j F L P S g j S F S S S j P { ",
"{ { j.L.c.&.=.&.O.<.S.A.Z.Z.<.Z.L.i.,.+.*.$.@.J J X.Z Z J J $.;.$.;.;.;.:.| ! f._ Y Y U H *.L G S c L *.+.L j S S S S j j S y.{ ",
"d.{ c.=.L F D L ....=.<.>.4.&.=.1.z.1.,.w.o.J X.@.$.Z n  .$.D J J D @.$.$.#.^ h.h.r.~ T ` ` &.S j G S =.5.*.F S S F S F P *.a.s.",
"v.L.*...D  .m S m n D 9 ..;.=.>.=.-.n.i.x.p.L X.X.>.$. ...$.O.L D Z J $.O.-.) B.B.h.] Y ^ :.&.F F S j O.<. .D J &.&.*.%.+.1.L.N.",
"p.-.L D =...D S n n n n  ...=.4.A.=.-.c.g.g.w.%.J O.$.O.D O. .J J J G J z.) _ h.B.h.[ Y ^ 1.&.F =.-.*.*.,.*.S D 0.u.q.s.c.K.W.p.",
"j.5.=.J D ..F S n n n u i D D D  .L D -.p.M.0.` %.$.J J X...O.G J =.O.O.+.q.( _ r.r._ ~ w.-. .>.1.c.z.p.a.=.*.L y.r.g.m.K.c.v.j.",
"v.%.O.%.D  .P S n b h * h u h n J  .O.L %.-.O.+.=. .O.O.D J O.G D J O. .X.-.0.8.l.9.r._ ^ w.-.-.z.s.p.*.*.O. .*.i.v.n.O.O.1.v.s.",
"a.*.i.p.p.p.i.G j h b n i . ; h D D D  .O.=.O.J J O. . .J +.O.%.&.D L n  .+.*.i.w.r.k.h.r.~ _ _ _ _ q.y.L j j P *.w.=.$.=.F *.O.",
"O.i.p.h.f.M.s.J n n n n h 5 u p n g i Z @.G B t s q g J  .$.-.O...D L F J $.<.5.m.t.R.I.k.} [ ] Q ( y.z.L j j j G S D ..&.&.F &.",
"L *.u.f.r.k.v.c.*.D n n h h h h j + X 0 k e k g s o & g h X.>.:.=. .O.O.s J A.n.!.m.B.R.I.B.f.] ' P G j g S j n n D ........&.&.",
"S J +.u.B.k.U.v.z.1.$. .m i n h ; . 9 - 8 k g g k - O 5 j m =.1.5.4.5.<.V M >.n.!.V.f.k.r.r.] _ y.c i z g j j n D G n n ..F F &."
};
