/* XPM */
static char *_86b50d9e975464088754401c27e04c9[] = {
/* columns rows colors chars-per-pixel */
"64 64 256 2 ",
"   c #1C5619",
".  c #23591C",
"X  c #1C6D1D",
"o  c #22641D",
"O  c #22731E",
"+  c #1E5D23",
"@  c #265A27",
"#  c #255E2B",
"$  c #2B5C33",
"%  c #315A35",
"&  c #1E6827",
"*  c #1E752A",
"=  c #1F6D31",
"-  c #236324",
";  c #226B24",
":  c #2A6925",
">  c #24642C",
",  c #2A632C",
"<  c #236C2C",
"1  c #2B6C2D",
"2  c #23722B",
"3  c #29772B",
"4  c #237B2C",
"5  c #276536",
"6  c #2C6532",
"7  c #256C33",
"8  c #2B6C34",
"9  c #2B6C3B",
"0  c #316535",
"q  c #326B35",
"w  c #33653B",
"e  c #336D3A",
"r  c #3A683C",
"t  c #257433",
"y  c #2B7334",
"u  c #2B7A34",
"i  c #257738",
"p  c #2D743B",
"a  c #267C3B",
"s  c #2C7C3B",
"d  c #327735",
"f  c #33733C",
"g  c #3A743E",
"h  c #337B3C",
"j  c #397B3E",
"k  c #42743C",
"l  c #2C6D42",
"z  c #356C43",
"x  c #3B6D44",
"c  c #386B49",
"v  c #2D7243",
"b  c #2C7C42",
"n  c #2C7849",
"m  c #347443",
"M  c #3B7443",
"N  c #347C43",
"B  c #3B7C44",
"V  c #33734A",
"C  c #3B744B",
"Z  c #357C4A",
"A  c #3C7C4B",
"S  c #3C7D53",
"D  c #387A54",
"F  c #43744B",
"G  c #477B4A",
"H  c #437C4B",
"J  c #467754",
"K  c #4B7651",
"L  c #437C54",
"P  c #4B7C53",
"I  c #1F8A2A",
"U  c #24842C",
"Y  c #278636",
"T  c #2C833C",
"R  c #2D8B3C",
"E  c #36873B",
"W  c #33833C",
"Q  c #328B3D",
"!  c #2D933C",
"~  c #33933D",
"^  c #41923C",
"/  c #2C8242",
"(  c #2C8849",
")  c #348343",
"_  c #3A8344",
"`  c #338D44",
"'  c #3B8A45",
"]  c #34834B",
"[  c #3C834B",
"{  c #348B4B",
"}  c #3C8B4C",
"|  c #2E9844",
" . c #339443",
".. c #389747",
"X. c #3C934C",
"o. c #3B9B4C",
"O. c #378756",
"+. c #3C8352",
"@. c #3C8B53",
"#. c #3C8C5B",
"$. c #3C9353",
"%. c #399857",
"&. c #39A34A",
"*. c #3CA455",
"=. c #3EB25C",
"-. c #3E9662",
";. c #3DA265",
":. c #46874A",
">. c #42834C",
",. c #438B4D",
"<. c #42934D",
"1. c #42984C",
"2. c #448453",
"3. c #4B8455",
"4. c #448B53",
"5. c #4A8B54",
"6. c #46845B",
"7. c #4C845A",
"8. c #448B5B",
"9. c #4C8C5B",
"0. c #548759",
"q. c #528C5C",
"w. c #439354",
"e. c #4A9355",
"r. c #439B53",
"t. c #4B9B56",
"y. c #44945B",
"u. c #4C935C",
"i. c #449B5B",
"p. c #4C9B5B",
"a. c #559558",
"s. c #52935C",
"d. c #529A5E",
"f. c #44A654",
"g. c #44A35B",
"h. c #4BA25C",
"j. c #45AB5C",
"k. c #4DAB5D",
"l. c #51A35E",
"z. c #54A85A",
"x. c #4AB35E",
"c. c #53B25E",
"v. c #448B61",
"b. c #4B8D62",
"n. c #558C63",
"m. c #5A8A65",
"M. c #4C9362",
"N. c #4C9C63",
"B. c #489A67",
"V. c #539463",
"C. c #599465",
"Z. c #549B64",
"A. c #5B9B65",
"S. c #53946A",
"D. c #5B936B",
"F. c #549B6B",
"G. c #5C9B6B",
"H. c #4B9D71",
"J. c #569A71",
"K. c #5C9C72",
"L. c #628E6D",
"P. c #63966A",
"I. c #629B6C",
"U. c #649C73",
"Y. c #689979",
"T. c #44A361",
"R. c #4CA363",
"E. c #4CAB64",
"W. c #4BA56A",
"Q. c #4CAB6A",
"!. c #54A363",
"~. c #5AA365",
"^. c #54AC63",
"/. c #5BAC65",
"(. c #54A36B",
"). c #5BA46B",
"_. c #55AB6B",
"`. c #5CAC6B",
"'. c #4CB566",
"]. c #53B364",
"[. c #54B36C",
"{. c #5CB36C",
"}. c #58BB6A",
"|. c #4BAA72",
" X c #5CA372",
".X c #57A875",
"XX c #5BAC74",
"oX c #4EBB71",
"OX c #54B372",
"+X c #5CB373",
"@X c #5DBB73",
"#X c #5ABB77",
"$X c #63A46D",
"%X c #68A469",
"&X c #61AC6C",
"*X c #62B66D",
"=X c #62A472",
"-X c #64AB73",
";X c #6AAC75",
":X c #68A478",
">X c #64AC7B",
",X c #6AAC7B",
"<X c #74AB79",
"1X c #63B473",
"2X c #67B775",
"3X c #6CB47C",
"4X c #63BB7C",
"5X c #6BBC7B",
"6X c #71B37C",
"7X c #74BB7C",
"8X c #58C26D",
"9X c #5AC775",
"0X c #51CD77",
"qX c #67C67B",
"wX c #74C77D",
"eX c #6AD67D",
"rX c #5EB080",
"tX c #68AA82",
"yX c #6CAC83",
"uX c #74AC84",
"iX c #69B985",
"pX c #73B483",
"aX c #73BC83",
"sX c #79BA87",
"dX c #79BC91",
"fX c #57C984",
"gX c #6DC284",
"hX c #68C785",
"jX c #6BCB83",
"kX c #73C483",
"lX c #73CA83",
"zX c #75C48B",
"xX c #79C688",
"cX c #7BCB8B",
"vX c #6AD585",
"bX c #76D689",
"nX c #67CF92",
"mX c #7CC893",
"MX c #7AD895",
"NX c #76E296",
"BX c #84B38F",
"VX c #86B98A",
"CX c #83C58A",
"ZX c #86CA96",
"AX c #8FCD96",
"SX c #85D797",
"DX c #86E49A",
"FX c #8EED9D",
"GX c #8DD4A5",
"HX c #96D7A8",
"JX c #ACD8AD",
"KX c #95E4A7",
"LX c #93E8AD",
"PX c #AAEAB2",
"IX c #B8E8C4",
"UX c #C5EACA",
/* pixels */
"AX8.+.(.R.r.E.[.qXOX X>X3XaX XF.XX_.E.].k.1X&X' } ....&.a / (  .{ [ 2.5.q.9.w.N.wXcX4X].{.9X=.! f.].8X*XF.V.XXZ.y. XAXIXdXq.q.P.",
"7.n.(.p.2XvX*.Q.#X(.S.:XCX:X:X,XaXXXW.;.8Xk./.f.X.Y U Y Y T ( $.T.@.2.9.3.w.} w.+X+X*.l.R.%.| &.8X^.`.).5.[ e.p.i.) ~.$X$X5.9.Z ",
"d./.2Xj.o.qXjX*.OXqX>X,XBXBXBXuXK.J.i.T.qXlX2XE Y ~ &.U Y a N 9.b.8.S L w.^.'...` X.x.r.w.X. .f.c.p.5.C.A.;X`.t.1X' !.p.w.[ B ).",
"ZX{.2XqXj.9XbX}.jXiXuXuXY.Y.Y.Y.J.8.$.].2X^.Q U Y c.CXk.Q b N C A Z D L M.R.x.*.&.o.g.E.t.} w.l.~.u.B f C ;XVX6XN.[ 4.d.Z.i._.kX",
"SXT.bXvX8XqXoX}.`.C.D.tXuXL.m.L.M.G.X.f...~ ~ ..E <.t.w.} 9 z l v D D L S.gXhX8XeXFXj.h.e.4.,.,.,.h f N 9 q.5.4.B N B 4. X1X.XaX",
"DXg.qXqXvXqXeXk.l.!.u.D.Y.Y.K J q.G.X.j.f.o.f.^.`.;XCX-XF.G.l v n V V D S uXPX9XNXhXjX<._ H j Z s.u.>.p 9 e e q q g H 9.-XaXw.6X",
"*XT.4XNXNX9XoXeXvX*X3XD.7.n.L.L.A.j E Q o.f.o.d.;XuXa.9.Y.L L S l D D V b.u.1XSXZXqX/.' >.k h j e 7 9 7 7 5 q 0 8 8 H K.sXxXkXp.",
"(..X#XbXvX9XoXNXFX@X`.3.L P m.m.B _ R Y T } } ).9.p g C 5 C J.v.l v D.D K.>X4.S F.d.} _ ' _ :.d < > 9 m 9 5 e 8 , 6 w P U.C.V. X",
"(.H.hXNXNXfXoX0XDXNX1Xt.>.3.G G B h ` / T u w.=X4.u ) 4.} V 6.J.#.n v Z 6.tX>XA P >._ ' ' _ d E u & 6 6 > 6 q > - , 0 z 0.9.2.XX",
"#XOX>XDXLXnXfXfXbXDXiXgXC.H H :.' j !.} b s N +.h X.w.-XF.!.B.dX.Xn +.v.D.Y.dXS.K P E W h d u @.$._ H d > # , ; - > 7 q M 7.S..X",
"iXMXrXmXLXnXnXfXhXmX Xs.3.G G B >.f G f f u 9 y t.T.aXSXiXgX(.4X|.%.-.J.tX6.L D.P P g u y 1 y y d 1 q : + # , : * ; t j v C S..X",
"iX#XrXdXnXnXiXiX>XS.6.3.5.G M g f q q r 6 8 7 < u / +XqXzXW.;.#XfX|.H.yXZX XD.J K F M d 1 d ; : 1 : & - o + - X * s p [ ] #.J.tX",
"OXhX#XXX). X4X).C.9.s.>.G k q f d d : : > 8 y s X.} ] +XE.%.fX#X-.;.iXiXdXiXb.C K c x H [ 0 d d H o o . @ . - ; b b y h @.6.S.XX",
"OX#XMXGXiX`.Z.=XC.9.>._ B f y 3 d 3 O O & o a.e.M.i./ i.%.Q.hXnXoX|..XiXtXH.S.b.F c x L P 0 1 q : o . . . . - o o X t / @.} e.W.",
"'.#XfX4X_.!.F.V.4.,.>.j j p h s 1.U ^ /.l.u s.j N O.#.#.%.hXhXeXoXj.T.y.tXS.b.+.V C 7.P C e , - . . o .     . o & * ) } +.$.$.j.",
"[.[.{.^.^.!.Z.u.e.,.' h u t ) ,.1.1.JXJX2XW 2 u 9 D #.;.+XMXDX0X8X'.[.bXiXS.6.v.Z F.7.z 6 0 , 6 q k k @ . . @ < t W N @.X.X.T.[.",
"[.@Xc.8Xx./.d.Z.u.,.'  .R r.~.t.) <.ZXIX&XE E y b n ] OXLX5XFX0X0X0XfXnXLXOX.XH.B.>XK.e , j j k 0 0.m.P.x % r w 6 7 Z #.%.*.T.[.",
"^.*XoXvXjXl.u.G.e.w.Q.W.%.E./.&Xt./.1.h.r.l.i.] O.O.] (.MX!.FXvXeXfXoX|.nXiXB.v..XM.+.[ _ d B 5.0.3.K k @ @ % c l n V #.%.;.T.l.",
"`.l.E.h.h.h.p.e.,.y.i.gX%.i.lXkXd.l.&Xd.u.N.w.@.( #.-.i.UX'.4XjX0X=.fXNXDXiXB.W.iX#.O.[ j 4.p A.a.P.m.VXJXc $ 5 V S O.D %.|.E.h.",
"f.t.l.1XSXZX;Xe.4.e.u.).@.w.cXd.1.t.).A.$X-X%.y.@.O.H.-X5XhX+XqXeXNXfXNXGXmXiXB.B.-.+.Z A f 1 k %X0.0.VXBXJ # 5 V D D -.B..X[.E.",
"2Xp.^.`.mXmXC.e.,.u.d.} [ w.).<.h./.kXM.).-XZ.@.y.#.S.Z.s.1X-XqXqX9XoXqXhXHXHXu.y.} C 4.H e V >.%X0.<XVX<X0.9 l D D D 6.8.(.#X+X",
"ZX!._.E.y.u.4.w._.W.h.e.} } } ~.z.~.' Z C.pX5XO.M.M.6.2.4.4.u.{.qX].fXFXMXMXaXR.i.X.h M B z m m 0.<XAX%X<Xa.V D D D D #.B.y._.ZX",
"A.a.a.t.T.%.OXiXZXzXXXN.F.h u W W 3 s 7 m 2.[ N V 3.3.5._ >.w.E.vXvXoXKXvXcX4XQ.g.%.{ } B 2.L z 0.UXJXP.a.Z n S D D O.v.9.y.5.G.",
"pX).d.1.8.(.B.LX=X} -X.Xu.u u 3 U 4 4 s 7 p a i p f N A aX4.y.[.9XvXvXMXMXjX@Xg.Q.;.O.Z C L D.C G VXAXa.:.B n v l n ] +.7.y.e.0.",
"HX0.A.1X!.9.dXS.Z ] V.3.B d 4 U U 4 O 2 t t i a a s h h G.e.Z._.oXOX4XMXNXMX#XQ.T.B.#.Z Z n.Y.m.S 3.5.C 8.v = t D ( b ] O.u.9.=X",
"P D.~.4.e.9.Z ] 4.O.[ N j d 3 u E W * 2 2 2 = i i a f ) M 2.F._.#XXXXXXXGXnXfX(.i.y.] n 8.,XI.:XP n.A.>.n ) t t a / b ( #.y.Z.U.",
"n.D.4.' ' ) Z H [ [ B h u E ,.u 3 ) 2 < y u 4 * t h p j B >.9.=X>X X4XgXmX/.R.w.$.@.) s N.ZXY.U.L.b.V.C.-Xe.] / / / a b Z H 2.U.",
"2.0.9.d.~.4.2.A B N N p N u d s s B B 2 < ) <.f.2 u i h _ [ 7.:X=XG.~.!.d.h.f.f.$.' ) $.1XaXK.S.n.D.F.-X%X7X{ $.@.` Y Y b N [ H ",
"G :.>._ Z.9.M F F f f f < h B $XI.>.d f 3 :.kXe.N ,.' u N [ 2.7.q.a.d.z.h.*.f.f.} ) E h.kX_.3X5.G.G. X&X).7Xl.$.).qX*.` T T [ ) ",
":.<.' W C =XD.K P e M 6 d g e 3.3.q A.:.Z.2 X u ' h } y.[ 2.6.2.5.5.e.,.1.1.<.' E Q ..r.l.N.;XpXuX] p.&Xt.E ^.{ -XlXQ.wXOXy.N y.",
"*XSXwXZ.A M x r F 7.K w C P G w x 0.9.5.e.>.` ] @.} { ] n C S 2.e.,.<.,.1...~ ' E ` /.wXy.,.:.s N / !.2X`.$.( @.=X1X4XkXcX-X[ } ",
"_ ' e.4.9.M f H P P F F A g 6 q q M n.C.$Xe.[ W 4 u s p m C C 6.3.,.E :.E ~ ~ E ..1.~.e.,.' { p.' p.e.~.d.#.y.F.J.>X3X>X;XG.e.,.",
"%.( ] ] N Z N 9.I.K 0 q M H H H C z z P :X7Xu h / b i 9 l c c J 3.>.' ` E ~ &.~ g./.e.<.~.~.e.e.~.&Xw.2.2.@.8.V.n.yXpX;Xa.u.d.*X",
"@XE.( / i ] [ [ 3.M } Z._ j 4.5.) 2.q.0.0.<XI.~.i = = 5 5 l c c C B B W Q U c.c.@X5Xh.7XaX2XI.6Xe.,X3X2.+.w.u.e.=XD.Z.R.*X-X-X_.",
"ZX[.Q.OXR.4.Z.2.U.8.!.&X6Xy.!.`.!.ZX$X<X5.:.p j y * = = 5 5 l z F H N W U &.&.c.X.1Xd.A. X6Xj s.H M j Z Z y.N.t.e.s.!.^.k.l.} _.",
"[.@XcX/.aXaXI.[ Z._.wX!.l.~./.&X`.;X6X-Xu.B 9.e.) 7 > = = 5 5 9 z x f T ~ f.x.k.' ) } u f H F.1 3.I.[ m ( @.) <.t.!.#XhX9Xk.t.T.",
"_.gXgXcXAXaXpX=X,X1XFX7Xf.t.`./.^.~.$X&X6X<Xb.M.).$X& * * & 5 9 e M _ ) z.*XwXSXlXR.).@.d e 0.M 6 e 6.Z s R ~ ! o.$.XXx.8XbXlX1.",
"} Z.u.A.~. XK.s.;XkXwX5Xj.{.p.p.p.l.Z.C.G.I.6.P d j O X & * < 5 8 B 2.) E ~ 1.*X2X).s.u.2.G F M e e q t s j.'.&.g.t.o.E.8X[.o.t.",
"@.!.Z.CXsX=X9.-Xe.&XwXx.].g.).CXxX2XG.8.2.A.V.y :.e.t.a.W & < : > [ ,.e.z.wX*X!.4.u.e.2.C.K e 1 > 5 Z } T X.].W.t.r.r.].g.Q.Q.hX",
">X:XpX<X4.B ,.d.l.l.E.%.W.XXzXKXxX,XtXb.M.V.2.{ 3 :.<.a.h u < 3 ; y [ e.4.wXAX5X) _ ).V.g 1 : 4.8 i y ' $.$.*.Q.h.E.x.o._.XXW.gX",
"S.n.H g u a W ' $.`.XXMXPXcXlXzXzXAXtXJ.S.-.#.y.1.X.' w.:.&Xj } < 8 j aX@.2.G.H _ 7XAX5.u 3 < ;X;X_ w.] 2Xf.s X.`.[.hXjXhXQ.aX X",
"A.N j u u T T  .R w.+XgXPXcXlXbXSXKXGXY.J.#.%.i.t.r.&X;Xa.a.%XA.h < t B 2.S.2.u.xXCX<XN ] ~.Z.V.6X$X2XE U ( X.} R.XX1XzXiXHX=Xs.",
"m s ) ..T Y R f.! R p.*XcXcXjXzXKXLXHXuXB.-.%.%.{./.2X&X~.;X>.e.Q * * t O.J.uXpXAX<Xn.C @.`.s.B A.[ <.;X..! ` p.4.kXIXLXzX). Xw.",
"@./ ) /.1.! R }.*.! E ' w.`.gX4XyXaXuXY.F.B.-.T.2X*X;X;XCXA.Z.aX/.! Y ( D 6.b.Y.P.g f f e.d.,.B 4.} a o.*.o.X.{ ) $._.,XN.p.d.[ ",
"@.N ' `  .Y U  .&.~ ..*.{ M.M.dXGXGXV.9.S.H.B._.W.-X3XK.U.b.>.e.kXX./ ] O.S S.P C H j :.$X4.e.>.h ~.~.@XqXQ.{ w.} / ] ' ) ) ) } ",
"T { R U Y I I ! *... .$.Z Z ] b.6XC.,.5.9.(..X).M.e.2.7.x L s.<.<.<.t i 7.uXJ.L.f ) _ y y } ;XwXu.,.u.y.XXN.M.y.).{.{ { $.@.[ / ",
"%.Q.^.X.~ U I U Y R Y a N b b ] S u.xX>X_ 3.H 4._ 4._ 9.C.A Z.;XZ.1Xg.@.+.n.m.6.[ N.4.!.e.p H U.s.s.:.f e.+.9.9.e.e.B h N N [ / ",
".X1XZ.r.o.{.x.T u a a i b b n V L +.9.2.>.G 5.w.' ) _ 1 9 9.N a.4.%XO.#.v.7.7.n.J.M.F.Z.A.:.> > 8 C Z.5.g M 6.m p g h s a N b y.",
"Z.M.@.XX2XaXp.<.y u s a i b v l C C M M _ _ e.!.' 3 U 2 < e.A p t 8 v N j A =XV.b.b.M.2.d p p # 5 5 1 1 f 6 w M p j W ) 9 H 8.2.",
"S.M.3X$X!.N.,.4._ 2 u p = 5 5 l f f N j H 9.).4.3 U ..Y < _ s.h d y 7 q f H 9.9.2.2.B h t ) A.d.< 5 7 < & > 6 x f H M 8 9 z L n.",
"8.,XF.[ ).2.b ' X.;X} u < < = 7 t e e f f A >.u U ~ *X*X` N !.1.T ' ' 1 e f H u.u.V.[ h w.j :.G 1 > 1 < - , % r r 0 r P $ z m v ",
"S S.8. XXX.XN.;X6X:Xu._ W t t * < 1 q 1 1 e p s f.c.qX*Xr.y.5XwX*.(.cXp.N p p [ a.3.[ N 3 u U :.y - y y - # @ % r 0 6 w % w 9 9 ",
"l D V.tXH.(.iX6X:.2.v e.A.$Xu.4.y 1 y 1 7 8 f t &X*X2X`.!.{ wX*Xk.wXqXXXZ.iX!.w.G.e.2.) R 1.3 : ; 8 g f > # $ $ w e - @ $ $ l n ",
"S L.yXO.S.H.ZXZ.2._ d.} s.C.I.0.q q y 2 = > q u.e.7X/.$.).B.5X{.t.5XcX`._.1X_.)._ :.p.} { X.z.E W q # g , # @ $ # F m , # q f V ",
"C L K.dXS.b.sXZ.X.A.S.9.;Xz 8 e q g < = & & 5 2.A. X(.M. X(.aX7X2X2X1X-X).7X2X2X^./.+Xt.f.w.@.p.~.a.M 0.q F 0 $ w F L.0.w m.n.V ",
"3.6.:XyXV.5.$X,.y.7.D m.b.l f f M 6.f 7 7 N q b.b.V.F.K.iX-XSXcX3XCXsX&X-X`.kX}.].1X2X2Xt.o.p./ a.a.k 6 C.w 0 @ @ x K 0.w $ x c ",
"Y.CXuX3XN.d.!.r.Z.u.3.C z 9 2.2.H A D.9.C.4.v 7.D v. X>XZXXXdXaX;XxXHX5X2X@X[.9X=.j.@XwX1X{ <.) <.e.A.0.L.x m., #   + , , + 5 J ",
"D.D.+.M.1X1XwXMXOXp.M 9 B B U.D.6.u.VX,XU.6.l 9.V S.yXzXiXmXZX>XU.AXCXxXcXqXx.'.j.h.Q.gXkX(.w.{ ' ~.<XI., G 0.H :.>.1 < H 4.V L.",
"m.B _ ] zX9XKXbXmXW.4.] ).d.y.C.uX=Xn.7.D.m 8 S v.V tXXX.XGXGXY.G.,.Z.CXcXMXeXeX8X].}.qXiXZ.w.}  .` l.;X<Xm.M I.IXVXd.8.C.+.l J ",
"3X6XkX_.T.kXeXMXZX$.N.$.`.kX5XAX).I.Z.s.U.$XN S F.(.M..XH.yX>XGXiX>XM.$XSXvXoX=.}.bXvXjX5X6Xw.Q ..f.h.VXsXuX7.;X7X7X4.u.#.M.b.b.",
"sXO..XZXhXE.'.9Xg.@X{.( qXPX[.Z.(.V.V.;XyX=XN p 2.t.@.(.B.rX.Xv. X4X@.d.zXcX9X8X'.[.wX5XiX(.f.&.&.o.c.7X=XU.m.V.A.&XZ.-X@.O.uX>X",
"ZXB.S..X|.'.x.mXvXFX#X../.*X(.(. XV.Z.V.>X6X) u M X./ ] #.iXLXiX3XgXwXw.iX_.vXFXDX+XN.Z.Z.`.o.| | | c.{.>XD.BXuX:Xy.u.w.8.v. X3X",
"mXH.S.8.{ T.OXcX].CX!.g.%.i.T.B.F.H..X2X~.`.y./ _ { R b n #.iX.XmXzXKXcXuXmXzXzXiX~.t.w.{.t.&.&.].&.}.wX-XD.BXtXF.+.4.v.M.S.S.yX",
",XD.S ] { W.*.{ @XqXXX_._.i.>XF.,XH.#X[./.lX*X) T R Y a a ] O.{ +.4.u.ZXuXdX XZ.e.} ^.k.1.o.&.*.&.~ ].1.9.S.tX>X XG.uXaX>X,XA.V."
};
