/* XPM */
static char *brick[] = {
/* columns rows colors chars-per-pixel */
"64 64 131 2 ",
"   c #623F27",
".  c #664127",
"X  c #66432C",
"o  c #69452C",
"O  c #71472C",
"+  c #744B2E",
"@  c #7B4C2F",
"#  c #664630",
"$  c #674933",
"%  c #6B4B34",
"&  c #6D4F38",
"*  c #754E32",
"=  c #794E32",
"-  c #6E513B",
";  c #765035",
":  c #7B5235",
">  c #75543C",
",  c #7B5539",
"<  c #7D583B",
"1  c #765A43",
"2  c #7B5B43",
"3  c #775E49",
"4  c #7A5F49",
"5  c #7C624C",
"6  c #7C6651",
"7  c #7E6954",
"8  c #825436",
"9  c #8F5337",
"0  c #8F5837",
"q  c #85553D",
"w  c #8D563B",
"e  c #845B3D",
"r  c #8B5C3D",
"t  c #94573A",
"y  c #935C3D",
"u  c #995B3E",
"i  c #A15E3E",
"p  c #8D603F",
"a  c #95623E",
"s  c #9C643E",
"d  c #936A3F",
"f  c #9E6C3F",
"g  c #A0673F",
"h  c #875740",
"j  c #885740",
"k  c #855D41",
"l  c #8B5C42",
"z  c #935E41",
"x  c #9B5D41",
"c  c #A25F41",
"v  c #856043",
"b  c #8C6242",
"n  c #82644B",
"m  c #8B674B",
"M  c #85694F",
"N  c #8C694D",
"B  c #946343",
"V  c #9B6443",
"C  c #966B43",
"Z  c #9C6C45",
"A  c #946648",
"S  c #9A6549",
"D  c #95694A",
"F  c #9C6C4A",
"G  c #9B7146",
"H  c #96714B",
"J  c #9D714A",
"K  c #826750",
"L  c #836B54",
"P  c #8B6D53",
"I  c #846F59",
"U  c #896E58",
"Y  c #936F53",
"T  c #9A6F50",
"R  c #8C7056",
"E  c #87725B",
"W  c #8A745D",
"Q  c #947256",
"!  c #9B7253",
"~  c #93765C",
"^  c #9B7759",
"/  c #96785E",
"(  c #9D7A5C",
")  c #A36444",
"_  c #A96646",
"`  c #A16C44",
"'  c #A56649",
"]  c #A96749",
"[  c #A36C4B",
"{  c #A96B4D",
"}  c #A37146",
"|  c #A4724B",
" . c #A9754D",
".. c #AA784F",
"X. c #A66C50",
"o. c #A86E52",
"O. c #A57551",
"+. c #A97651",
"@. c #A67853",
"#. c #A97953",
"$. c #A17D5E",
"%. c #8C7660",
"&. c #8D7A63",
"*. c #8F7E68",
"=. c #927C65",
"-. c #9C7E63",
";. c #927E68",
":. c #A17E61",
">. c #9D8166",
",. c #95816A",
"<. c #9B846B",
"1. c #9E886F",
"2. c #958671",
"3. c #988670",
"4. c #968974",
"5. c #9B8B75",
"6. c #9C8E79",
"7. c #9E917B",
"8. c #A18265",
"9. c #A1856A",
"0. c #A2886D",
"q. c #A08F78",
"w. c #A3947D",
"e. c #A8977E",
"r. c #A7987F",
"t. c #A8987F",
"y. c #A49781",
"u. c #A89780",
"i. c #A69981",
"p. c #A99982",
"a. c #AA9F88",
/* pixels */
"5.>.-.-.9.>.9.9.<.<.1.<.>.<.9.<.9.<.0.-.-.9.9.-.-.-.-.-.>.=.1.6.,.1.=.9.<.0.<.8.>.>.,.-.-.>.,.-./ / -.-.>.0.>.-.>.>.<.<.8.-.1.i.",
"e  .O.O.[ [ O.[ } } [ F | | } [ | | O.} X.O.` O.}  . . .|  .A ,.N Z [ [ Z Z F | F [ [ ` } Z | [ ` } | [ Z [ [ J Z F ` F [ | m w.",
">  .O.O. . ...} }  . .| O. . .+.O. .+.+. .+.}  .+.+. .+.+.@.B ;.N Z F Z V F | F Z | | Z [ F Z ` } Z | F Z F | [ ` Z Z F X.} v w.",
"1  .} }  ... .}  .O.+. .O. . .@. . .@. .} O.+.} O.O.+. . .! D ;.m F O.` Z | G V F G Z [ | J [ Z Z Z F F | F T J | F Z Z F } v w.",
", O.} }  . .} .. .} } } |  . . . . .} `  . .}  .` f }  .}  .T &.N G Z Z Z J G Z ` Z Z Z J Z J V V J G V d G | Z V [ Z Z | } b y.",
",  .O. ... .}  . . . .#. .O.O.| } .. . . . . .| } } } } ` O.m &.Y +.Z V | V V Z G V Z J V C V F Z G V Z Z Z J F Z Z F | Z [ b w.",
", +. .O.}  .} O... .} |  .} }  . .} ..O.|  . . ...........O.D ;.k D V d C V ` F Z [ J Z J Z ` Z V s G V V Z Z Z G V a G Z | k y.",
", +. .}  .`  .+. .} | }  ...@. .+.} O.} } } O.@.#.#... .` } D ;.N F | Z Z Z | | | F Z Z [ Z Z F Z V Z F Z Z Z V Z Z F ` Z [ e y.",
",  . .[ | } [ | O. .}  .| | O.+.| | | |  . .} | | O.+. . .} m 2.N [ | F F J F [ | | F O.| O.Z F O.} | F } F | [ | | | | [  .e w.",
"1 > < 2 > < > ; * = : : : * * ; : , * * : > , ; < ; ; * = * k 5.5 + + = ; ; ; > O + * + ; ; + + + + + + * * ; : ; + ; + * + 2 w.",
"7.4.6.5.6.4.5.5.7.6.5.4.4.5.2.5.5.4.3.4.5.4.5.7.4.7.6.3.3.6.w.i.7.4.7.7.5.7.7.7.2.5.4.2.5.7.5.5.3.7.4.4.4.w.4.4.4.4.5.5.4.4.5.y.",
"T D D F D F T T T T F T T T -.5.R ! T ! ! T T T F ! T T ^ ! ! F T ! H T F F F F T ! ! H F ! Q 7.~ D F T T F S F F F T T T T ! T ",
"F F F S S F S S V S S [ S B B 5.2 [ [ } [ [ ` ` Z  . .[ ` ` ` [ } [  .` ` Z ` [ Z [ ` } X.} r 4.K B V V S S S V V S V S V F S S ",
"w z x z z z V x z z z z y V B ,.k ` s V ` ` ` f V } V V ` ) ` ` s ` V s s s ` g V ` s s ` Z r 5.k S V z B t x B z z x z w B x w ",
"z z w y w z z y z z l t z V m ;.v ` ` ` ` ` s s ` ` f ` s ` ` f s s s g V g s s ` ` s s ` ` p 5.n z z B S z z z w w z z t z V z ",
"t w w y t l x z y w w w z B A ;.l ` s ` ` ` s s u V ` ` g ` ` s g ` s ` } ` g g s ` s s V V r 5.n V S S z w y z z w w j z y l t ",
"z w w z z z z w z w t z S S D &.k [ ` Z ` V ` ` s g g ` u ` s s g s f ` ` ` ` ` g s f s ` ` r 5.n B z z z w t z z z w z t j t z ",
"t z z y z z z x z z z z z z A ;.k Z s s s ` s s ` ` ` g u ` ` s ` g ` } s f s ` ` g ` V ` ` e 3.v x z j z z B z z z z z S z z z ",
"l V V B z V z z B z z z x S B ;.2 V s ` ` s s s Z ` ` ` f ` s ` ` ` V s ` s V s ` ` ` } ` { r 5.N V x z S V S B x z V z z z S z ",
"w l l w w l w z B z B z l y k 5.> a s V s s V a a a y B a s V a a y a a y y a a V y a a a B , y.1 r w l z r w w l z z z z B w w ",
"n 3 n n 5 5 5 5 4 n n n K L W 7.I 4 n n 4 v n 5 K n n n n 5 n v v n K n n 4 v n n K n n n n P w.W n n M n n 5 K P n K 5 5 n K n ",
"6.3.>.3.,.>.1.1.<.,.-.;.<.<.<.1.<.=.-.=.,.<.<.=.-.;.=.-.-.-.=.5.5.<.>.=.,.,.,.>.>.,.;.>.,.3.5.3.5.<.,.,.<.3.3.>.1.1.;.<.=.=.>.w.",
",.l X.| F X.F [ T [ F F [ [ [ [ F [ F F F [ [ [ [ [ [ F F X.S / &.T X.! [ O.[ [ O.[ O.F [ O.X.T [ X.X.O.O.[ X.O.[ ! [ | X.[ F =.",
"q., ) V S V V S x c S ' V B S ) S x V x V y V F S V x z x F V Q W A ) [ { ' [ [ ) { { [ ' [ [ o.+.o.' [ [ { [ [ ) X.X. .X.{ V Q ",
"5.: V x c x x x x x t u x u u x x u u x x x t x z u t u x V x P E A _ V [ o.{ { ' { ' ) ] ] ) ' F ' ] X.' ] { ' ) ) o.X.' ' [ U ",
"w.= V x u t x x x t u x c x x y x u t t t x x x u u u u t y V Q %.B o.{ { X.] c i ) ' ) ) ' c X.) c X.] ' { c ' ) ) { c ) ] ' P ",
"y.= ) V x t c u u t t x u u u x c u x x u x u y u t u t u x x Y %.A S [ X.] ' ' i c ' ) ) ] ] ) ' _ c c ' ] { c ' ] ' c _ { S P ",
"3.: ' x u y x x c t u x x u u u x u x t x u c x u u t t x V V Y W A _ ' c ) ' c _ c c ' ' ) ) ' ) ' ' ] ' ' c c c ' o.' ' [ ) R ",
"6.8 V t t x x x x x u t u u t 9 t x x x x x x u x u u t y x V Y E A ' ) c ) ' ] o.c ) ] ' _ c ) ' ' c X.] ] ] ] { ' ) ) ) _ S ~ ",
"6.: ' ' z x x V x x x V ' ' V S x z x V V x x V ' c ) V x x V P I A ' [ ' ' [ [ [ ' _ ' ) ) _ { ) ) x ' [ [ o.[ ' ) ' ' [ ' S R ",
"q.* z l z z l r z B l l l B y B z z z B z z r l z l z l r l r P &.l B B V l y z B B V A B a B B B z z z B r y B z B B B B B y ~ ",
"y.I 6 7 6 6 6 6 7 I L 7 5 6 3 6 K 6 6 7 6 7 7 5 7 6 6 7 I 7 I 3.6.I 7 6 6 5 5 4 5 4 5 L L 5 7 5 4 6 6 6 6 6 6 6 5 6 7 3 6 7 L 5.",
">.:.>.:.>.8.8.8.8.( >.( 8.>.-.-.y.5.-.-.:.-.-.-.9.9.-.9.-.-.9.-.,.9.9.<.:.9.9.-.9.<.9.8.8.8.9.<.w.q.-.$.:.-.>.0.9.8.>.( >.-.9.>.",
"G J G J J J J G Z J J G J J G p q.6 S A S T S T A S S A T S S D F F B F T B T S A A A B A B B A ;.R J Z f G G G Z J J | | G G V ",
"G J C G d G d G J J G G G G G r q.3 A l l l j l w l j A j l l l l l z j z z l l A z q h z l A A &.M C G C G d d G G G G J J G G ",
"d G G G G G d d G G d G J G J e y.2 S A j l q q q h h w q q h l l l h j j q j q j j h h h j l A ~ M C G G d G d C d G d d d C G ",
"G G d C G G G d G G d H G G G r q.4 z l j j l l e h h h l h h h h h , h j j h h q q q h h h l A %.M G G C C d G G G d C G G C d ",
"d G G G G G d G G C d d d d J r q.4 A A l j h , h j j h h j h j j h h h l h h h q q q h h j A A =.M G Z d G C G G G G d d d G G ",
"d d d G G G d G d d d C d d G r 6.4 A l l j l l j l h h l l j j h j j h l j , h l q h j h h B b &.n C G C C C C G d G G d d d G ",
"J G C C G d G G C d G G d f G r u.4 S A z m l j l j l l l j h j j h l h h l h h j l q l l j B B =.U B G G G G G H d d G G C C G ",
"G G d G J G J G J J J G G J J 8 y.4 z l A A z l B B b A A B B A S l A z l b B l B B z b B b B A ;.R C G C G G J G G G G G G G G ",
"; e , * < < < < e e < : , : < : 4.3 ; : : > , , , * ; * * ; : , , , , > : , : ; > , , , , = > , ;.K * : , e e ; , < : ; < < 8 < ",
",.,.,.,.W E =.,.%.%.&.,.,.,.,.5.q.q.;.;.;.=.;.&.,.,.2.2.;.=.&.W &.;.,.&.,.*.,.,.1.;.;.&.%.&.<.3.w.3.;.;.&.W W ,.,.,.2.2.,.,.%.%.",
"-.w.,.Q ( ^ ^ ^ ( ( ( ( ^ ^ ( ^ T ^ ( ^ ^ ^ ( ( $.^ ( ~ ( :.:.-.-.y.~ :.$.:.:.8.:.:.:.8.8.8.( $.( $.8.$.$.-.8.( $.$.( $.( :.8.:.",
"C ,.E p C C C C C A C b b C A B C C m C B B B D C b D C A b p m k w.; | J | } Z [ F } | G ` } J } |  .|  .} | } J | } } G } J  .",
"Z ;.M p p e v v v b v e e e p v k b e b k e v e b p v b b p p A l 5.> | } } G f ` | } Z | } } } | } | J G G | ` |  .} } } } J  .",
"B ;.U e b e e e < < v b e e k v e e e b v < b v < e e e < e p b e 5.< O.} } } } } } }  .} | @.} f Z } G f } O. .| O.J } } } } J ",
"C &.E b b e v e e e < e < < e k k v e b v e v e e v e e v b e b e w.> | } J | } f } } G Z } } } f } } f f J | } G J } } } | } Z ",
"B *.L r b v e e e v < e v e v v e e v v e v e e e v v e v v e b e w.1 | } f } } } f f } Z | } } } } }  .f Z  .} } J } | } } } G ",
"B ,.R p b e v e e e e e v e p e b b e e e e e p e e e v b e e p e 6.<  .} } } Z }  . .} } } } } f } J | Z | } } } G } G f } } } ",
"d 3.U v l e A b b p b p v e v p b m m b p v v m b e b v e b p b v w.> #.} | } } | | J | } Z } [ } } J @.} G Z } | } } | } } } } ",
"C 2.P p C b m C C m b b b A D C b B b B C D C b A C b C b C A A r t.> | J |  .` G .. . . .| }  . .} J }  .} | }  .} | |  . .}  .",
"% w.E - - $ - $ # & - - - % % % & % & - & & - - % # & % & $ # # 1 w.K . X % % % $ o o o   o     X $ % $ o % % $ $ o X o o o o o ",
"q.q.q.w.e.a.w.w.w.p.p.w.w.e.r.r.w.y.p.w.w.w.p.7.w.w.p.w.r.w.p.w.w.t.r.y.y.w.e.t.r.w.i.7.w.5.u.a.w.w.w.w.w.e.w.r.w.w.w.w.w.r.5.5.",
"V C B A V V Z F Z D V Z B B ,.%.T F F F Z D F V F T F F J O.T F Z D F F D F S F Z D F J F T 6.~ B A V C V B V B Z A B Z C Z F Z ",
"B B B C A C C A D V A A C d ,.M V B V Z V V V ` Z A V V F F S V V V V B Z V V Z V V V Z Z y ;.L p C G B A B d B A B B A B B A p ",
"a r l d a r B b B v e p B B ,.K V V V a y y y y V a y s V y B s y y y a y a s B V V a s V B =.L b B b p r p p B p r p p p p p B ",
"e p r r e e b p r r p r r B ,.M B y a y 0 a s w r y V y B s w y y a V w 9 y s y w w 0 a V y =.I p p r r 8 r e r p r r r r r p e ",
"B p e e p r a r p r p C B B ,.5 Z V a y y u a a 9 0 r y y y w V V V V s a y y y y s y y F a &.E p B p C r r l p p p e 8 p p e r ",
"v r r r r r l b r r e B C B &.M B a 0 y a y y a s y y y s y V y r y y V y w y y s y y V V r >.I p p r r e p r p r r r 8 e p r 8 ",
"B a B p p e p r b p p p a b >.K B V s y a a a a y s y B a B s y a y y a a y a y B y s B B a ,.U p p b r r p p r p p a p p p p p ",
"C A B C Z B B d B B C B A C =.6 V S V V V V V V V B V S V V V V s V V V s V a a V s V B V a ,.W b Z B B B C B C B C B C Z B B B ",
": : : = : : 8 8 : : = = : : =.5 8 8 8 : : 8 8 8 r 8 0 r r 8 r r r 8 @ 8 8 e q r r r r 8 8 @ 3.E O : : 8 : = * + + * : = = = = = ",
"&.I %.W W W E U W &.%.W ~ ;.q.5.I E ~ W W I U E U &.U I U I K K L W ;.~ I K L K 6 E R %.E %.i.7.&.~ %.%.&.&.,.,.,.,.%.%.,.=.,.%."
};
