/* XPM */
static char *_30168c449894726b4069b99053a66db[] = {
/* columns rows colors chars-per-pixel */
"64 64 38 1 ",
"  c #1E2D0B",
". c #212F0A",
"X c #25350B",
"o c #29370D",
"O c #27390B",
"+ c #2B3C0C",
"@ c #303F0E",
"# c #263311",
"$ c #293611",
"% c #2D3C11",
"& c #303F12",
"* c #2E420D",
"= c #32450E",
"- c #38460D",
"; c #354A0E",
": c #394D0E",
"> c #37510F",
", c #3C520F",
"< c #3E580F",
"1 c #2F4111",
"2 c #334412",
"3 c #384715",
"4 c #364A11",
"5 c #3A4C12",
"6 c #354319",
"7 c #39461A",
"8 c #3C4B1A",
"9 c #375110",
"0 c #3D5211",
"q c #41550F",
"w c #43580F",
"e c #404E16",
"r c #404F18",
"t c #425412",
"y c #435A12",
"u c #425319",
"i c #45581E",
"p c #476213",
/* pixels */
"X+;5iX+@X *O+OOO*=;*****;O;*114*+@+OO;=;;o=;+OO>;OX;+4451+5++==+",
"*;;43*+++O.*++O*=*==OO>=;+*=$1%o*O***O;;+*;-;++<1$@*o24%.4;*4w;*",
";;--%+@*O=***O**;**+**=*=;=*#5+%@;+*++;-=*=;*+*;%1%%4@+X$=*;4,:*",
"=+**35.+%1XOOOO.**==*O**25;*3&%12+*4=*;=+5*=;X*=221+1O+X@1@=;-=*",
"+:;+3yo&1++O*XO**=;>*O*+214*=*%1*O,<q:-@;;+22t-*1%o@*OO*X;@*==o*",
"o:+*3y3+%4OO*O*****,=*O;@#OX+1+0-O=;-,=:4=.#o=>-1+++OOOX@>*****+",
"%&@+o1+%o2O;OO++*OOO:**.++=+O==-;;==*=**+=##oX+q1454*.+OO:**O*44",
"=$%@$$&#$*O.*X*+O.*=>>:*+O;;+O+;=**;==+O*y@===**;;>**+1X=*O*9;2;",
"OXO@+--*+;+O;+O*OXO+;***+2*;;**O*=;;=>=q@;5==5=;,:-O*+O*O;O*++;;",
"+X24*;@;++X*****O****X*;=@%+q;OO*;:=+-:-*=:=,@+:;:-*+***OOO*;+X*",
"**;;+O=;**O+OOO**;;XO.*+@;X++p*=**.=+;:>;;5=>;X*;;+;*=:OO+*O*=OO",
"+**;**;;*o*+O.OOO**oO*O.==+++-*O+*O=*:@55=,=-;+X*+O**+=;;+;;+**O",
"OX+OO+<*****;*O;*X@oO++&1=.=+***=,,=-:=-2=;*=+++=**=++++****+*OO",
"+**O++**+O;OO**X=X**O+3324=***O=*=**;;==1-=@====+*;=*+;<**;OO*OO",
"*O>**X*=**1$*+*O;*++**0611==;*X+*O;*;**;1;;;;05;+*>***==*OO***+O",
"*O**X**O*;1*#+OO;;=+0*1212;+@%+O+O=,X*-,34;=+25===>=+>*;>;=*O**+",
"O;** *=;54941+9O;;OO>;+=,=*#2+;*=541+@*1o4@+@3=;<:**+=O*==;+XO+O",
".O*=X*O;1O*4=*;O;.X++:;=O-@@2+>*o:=w>*o2o3te455;-,-*+*=*;-*=:O.X",
"O@+*;***57+41**OOO*=++;OO++@=4*;1401%%%&$%&3*1*@*-@:=-,:*-=>;**O",
">@%=***O%u664****O*0**.+*+@+;;**-21#%@1$$&&610*@;::;*,,=***=****",
"13%3;** $4741o@=%=@*;XX+X++==;O===#$4O4%$64@1,;=*=;==;==;X+***-*",
"#8%$+;OX+367$+%5=;OXXX+-O::++=+O=3&*;O1%662==;;,*;*+,,=;;*Oo;-<+",
"21%%*;O;%%182=5r*4@ X**:O;:*O+O*=42*=+=@38*=;:y,*=*;X:+,*;O=e5**",
"442310$57%24*;qe%,*X==--=,;**=;;=*+O**+@1y=4=**,==;=++*;*-2%3-*=",
">=-8142re35X:,:-;00-183+=*+;.;;;==+O;;OX14;*+*=$=*@:;*1;=*o*145=",
"-;=t356t3@+;*:*-,40=;35*4@X;*+;*+=O***o*;+***;;%1*O;+*XO+;-5;;,;",
"*=-625t5t++-;;=;y$,=*;02;2*OOX=O+=X;*++2+=4-,4@=%$OO*+O;*+2,++,=",
".O+1345@-*O=,;-031;;3551*@%+$=*O+=X*14+;+*,+*=4%*=*;;+2544==+:=*",
"+++*:1:;4@;->,:=122++0**%*21172@**OO#945-@+%+O:;+*;:*+27534==q,X",
",=++X551+*;5;;3==44=O@X%%*5;$%41O*X+*@%*+:@;:+**O;=*O;1;0t<=,=++",
"q*=X+-052--**,3-+4@*+++21%221%8&++@o0;=@@-,,4,;==*O.;*;*;9*4;=@*",
"q;:*@0=35++@*:+@@42**=o5+%+%2%11+o+.-;==-,:==;>;=*OO***+=*-*;=**",
"-=**1@+271++o=o11+;;=*+1*11$13$1*X+X:-=%e4=;O::@-=***;*O*+*O=*O*",
"=*+**O++811%++X*+;2**;*2+O2#111OO**;5:4$e$@;:5=t-41+O**O*O**;;**",
";:,*X*O;=@4;o+;*+1XX,0%$%*4133*o*==>+q:=80:@-@,=5;1;<.**O.*;y,O;",
"-;=;+**:-@221+;;*X.X1+.*X+;12$$@4;+@5t,23%%%2>:=,;;y* +*O=O*:>**",
"-+*O***2:@o@4o+***;O+=X;*+%+11&%=;==:,:3332@240@-;=;*OOX**;;*=41",
"**++++144=o1+;*+*;=OO++**%$334+*=*O-:,,-255@%*>1*=*;O=*OX;=@;44;",
"1=O+1+1&24++*>OXX**XX*X*+o%#4411+;+*,,=34223&@:42=@4@+:;O=@2@4$=",
"1*OOo2%$1141+;*+*O*O+;O+XO2++261**3=::55:-e5e4;;::+2O*y;+=4*+1&1",
"*OoO++O11%%1=,:@*X*+#4$+%@O%5%&%;*w@==<;=:q:e50=*==O==O***-:*;X+",
"*+OO*+*O$+@=5;==*O1#+##O4$+*y5w=*OO*O=;>,;;+26@=;O*+;=--;>X@O;O+",
"OXOO*O;****:,5==*;O%11+1#$@;+21*+**;****;==2%2@-:+**,**,y@*q:*XX",
"*+O*2+*;O;5;=5=@O*4%24%1%%14#@%*X**;*+;**+:*++@,:*==@*=;,@*,;-*=",
"1+$#1%1*XO=O-,>411;11#$X===*+*=++=*=;*:-;O=OO4=:w;:*X=*=;;X==-*+",
"9$%2;#%1%4@+*+;01*9*;+%;*==OOO*+O*;*>;;:,,;=@=i&-,w=**,:w-y=+=+X",
"+##14XXO@%1;*==1*1;;+%1+*=+*X;+=O**O+2*>,;<OX=@*==>**@===y==3==+",
"6#$#%O1O=212O-+O*O*;2%14;OO;=;+***>*O*=;,;*;*324::;*@2-@o,&4-:54",
";%%%+%OO11;=+****O**41#25%+O+=o*+**=:O==-,*=;42=;**++X+@@111w421",
"014%2%.OO+*O=*=**XO=26664$*1;=%++OO=*;:4;q=O;*;**+@++X=@*22+2@35",
"te&$;O.X*O*O*O**OX+**122%*;;>-1##$+*+=1*+*+OO+;**+-=-==O*54==52e",
"084O**OOO*;;OO*..O;*o148@4:0@+%%2+2OO*$OO+;=++OXX+*:*+OO%;,,:51:",
":-;O==*1*.****O.XX;*o@$e41138=4%511+*o%1:O*+XX=*++,==*:*X*:=-5;*",
"=+*;*;+$XXO+***.Oo;=X=;368&65@23%$O+***2;=*+=+O;*+*.*+*O.;@444=*",
"@*O*=1$$+OOO**>++@.+=;36=%&%421112+*=2*@O=OO==**++=.+*.O+@-=:*@+",
"O;;**%$#O+*O**;++4#+=@1&411o4%3%14**++O*O*O+*OO*=O++O**;++;++XO*",
"***>1+%#*OOXX**=*0*1**-41@@*41*o%8%;*O**+XO+++O*;O*O===;*=X**XO*",
"*XX;9*;;O+*O=***O*+,**4%81XX;;+;681O*OO*OOO;+OO*,*OO**;+;*+O*+.O",
"**O*+;*O*++**66=4o*,=@565%*+O5*X+i1+;O**O*OO=*O*>X=+;O@=+*=**+.*",
";*%O=o;***+O1%%O22*O==+4,;=**O*O@%1%*;9*>***+=.*XOO*;*=5;@XO++.*",
"*$+#1X*%O;OX4876%6XO*=**5=O*+O*O*+=OO+**=***++ XX*O+=+$4%4XX+.OO",
"1#$%2XO+%O+O9882o:X+;*+*;-*;o%XX1+;*O+**;;==*OOOO;O@;1%@13+X*.@o",
"*%%#@@O+**OX146++5@*;;*;;;1O+1X+%@++***;;-=;OX;@*<;+=2-5@5++;+26",
"*+*14*>>O***O%%1>-;*;;=1OOp*%4=X+O;X*=**:;;=O+O***O-@@=3=-=*=*X4"
};
