/* XPM */
static char *_d712768e7494a6df12b42324422c0a1[] = {
/* columns rows colors chars-per-pixel */
"64 64 25 1 ",
"  c #020000",
". c #0C0000",
"X c #140000",
"o c #1C0000",
"O c #240000",
"+ c #2C0000",
"@ c #340000",
"# c #3C0000",
"$ c #430000",
"% c #4B0100",
"& c #470900",
"* c #4E0900",
"= c #530300",
"- c #5A0500",
"; c #540A00",
": c #5B0B00",
"> c #551100",
", c #5C1200",
"< c #5F1900",
"1 c #620C00",
"2 c #621400",
"3 c #6A1200",
"4 c #641A00",
"5 c #691D00",
"6 c #6B2100",
/* pixels */
"$=#+OO@O .oOOo.o+@##$@O++O++OOO+@#$##$%$o#%===%%%%$##+@@XX@%=%%#",
"=,*%$#++XoO@#@@@###$%%#$##$###@##$##$$##O$:----=:--==-=%=%$=:1-=",
"==;;*$#@XO@@#$$%$%;*;%$$%%%$@#$##@+@###@XO$*:,3==---==:::*$#%=:=",
":-;:,,-$O+###*;;>*%=::-%=%%%$$$$##@@@@#@Xo+#%%*%%=1--,---==%%$;%",
"$%%;;:,=+#$%$:,,-::;-13-,:%$$$$$$%%&%$%$XoO+@@@@@%%$%%-%%--$#$$%",
"@$%*=:2:$$$%%%===::-:13-=2:**$#$$$*>***-##OoOO+XoO+#=$@$=;-:=%*#",
"%&;:--1:#%%$#$%===:-::2,=::::*$$#$%%%$%#+$$++OOOoXo+@@@$$%:,,::*",
":;::=%=%#$-$#$$%*%--::,:-;==;;=$@#$$##$#+$::%$@@OoXXO+@$%$%&%%*;",
":,:=-#==#$-$@##$%%%:-==;=*%%%%%##@##$###o@$**$$#+OOXXooO@OO++@#*",
"O@#@@@$$@$=$+##@+@#%%%%%$$######$####@@+.+@@$@##OXOO.   .ooX  .O",
"   .XO@@@#@+oOo.X .o@@##@@@@+O+@@+O@@Oo. .XXOX XX          X    ",
"OoX##%%%%%=$@@@@@+ O##%%=%=;%$%%%%+$#@#$$+###$##$o o+++@+O+@@@OO",
"@OX#%$#%%$@@OOO+@@.OOO@#$%>>*,,>:$O@%%*%%%#$%;==-$O++O+@#@+#$###",
"+OX@##$$$$@#@OO+@+ OOooO@##*>>>4>$o@#@@#$$$$$====%$;*#@@+@+++@++",
"+o O++@##$$##+OOOO @@Oo.O+@#%*%:;$o@#@++@@@$$*%=-$$24>$#@@@@@@++",
"@o oOOOO@#$$#@@O+O %&#@+ooO+@#%**%o$$#@@@+++@#$%=$$1444;$###$%%#",
"$+X+@@++++#$$#++#@.@%#@@OOooO@$$$;O$%$$@@+OO++@:;@+,52,24,;=%-:$",
";$+#%*;:%#####@@+O +$$%$####@@##$-+%=:=$#@OoOoO@#@O;,,2,2424;=,,",
"2-#$=:,::-%$#$$$##X@#**%%#@#++#$%=+:=-:>;#@Ooo+O@@O;,22322242>>4",
":=#%===--=;*#+@@@#O#$*$*%$$#@++@#$O$=*;;,,=#+OoO@oo*4412222:>;;:",
"##++##$%=$$#@+Oooo.O@@+#$@+Ooooooo.O@$$#@#$@@oooo  @%%##$$$$###@",
"#$##$oo$$@@@$#@OOOo+###@@@@#@++oXXo++OO$@$%$@OOoXoO@O##$%===%%$$",
"-:-==##=%%%==-;%###%*::;;:>,4-%#@++@#++;;-=*%+O#@#$$$$#-::1-=:;:",
"**,;-#+=%%====:=%$%@%$;=%=:,462-*$#@@OX$,*%*=$#@$#%=%$$::32,:;:$",
"#;;:=$#===%--;-;:;$@#$*::-=125562:*%#Oo#%**=$@#@#%$$%$$=;;-:;>:$",
"$%*;,%#%=%%===-:;%#@@#$,,,--=:4552;;%++#$%=**%$$@@#%%%#@$%;-:::%",
"%#$$%#+#$$%%====-%%#@@+#======;222;,=+O#$**%%;=$#@@$%$$#@###$%;;",
"-%$*$#O+##$%===-;,;%####$=%==%::-:,24$@$%*$$#$$;;%#@%;%#@@+@@%%%",
"=:;,;@+@$%#@##$=;*:%##%$$$*----:1=--5=$,;$$@#$$$*-;$$$#@O+O@##%%",
"%-*$%#$=%$-$#@#$%=%$+O+@#$--:;1--31:1=%46:$#@$$#$%:=$%$@@+#@@@$#",
"@$$%*$#%$%%$+@@$%-=$@OoO+#*;%=%=-=-1:$#:4,;$#@@@++##@@%%$#@@@+@@",
" o+@@OoOOOoOO@@@$$%$#+OXX.XoOOoOO#$#$#+@####+OoooXXXO@@@@+XXXoo.",
"XX+@##@OO +###$#@@%%=$#+o .XO++o.O@@$====#$==%@+OoXXO@#%$oOO+Ooo",
"+OO+@+@+O O$*$@###$>6<;>#oXO+@@@@###$$=1:@%-22>$+OOO+@#%=O%%%#++",
"+OOoo+##+ O@####*>**>*$&*o@$@$$$$%#$$$$=%#%=-:,:%#++o+###.#%$$++",
"+OOoOOO@@ X+#$%%#$##&*=#$o+$$$%-%%$$===-1#$%:=:2,%#@+o@$%+%%%$$#",
"%#OoOO++@ o@#@#+#*&%%$#@@..##%=%$%%---=-=$===-;:,,;$@@@#=+;$###$",
"$%@OOo++@oO%$$##O+@&&*$@OXo@####$$$#$$%%%#=--=--:;:*$$$==o,;#@@@",
"@$@oXoO@$+$%;*%@+@O+$$$$+oo#$@+OO+O#$$#$$#%-=%=-=*=;$$$*;o::%@++",
"+O+OoOoOO.+$$%%&##+O@$*:=@@$%#@+++O++@##$@$%%%%-=%$$$#$#$O*$%$#+",
"+OO@ooooO O=%-$#$#+OoO@%=$#%%%$%$#@@@##=#O+%*$%=%=;%#@@@+ @@#$$#",
"+Oooo.oXo.@@$#$#@+@OOOO+$@+###@##%#@#@++# .@%$$$$#$$#+@+O .o+++#",
".oo.X  .X  XXo+OOOOo.X.XoXXXoO##@@@+OOX ...X . .XO+@+o+OX       ",
"O$$++OO++OXoXo@####@+OOO++. +@$$-:1:%$#+oOOoooO+$%==%@@$$$O XoX.",
"+@@#@+OOoXXX.O+@#$#+@@#@+@oo+%$*%%%=%##@@+OOOO+@#%%;###$$%$o$#OO",
"+@#%:%#OoXoooO@##@O#@##@@#@O@$$$%%#$$$$%##@+O+##=%%=*$#@%%$O$=#+",
"$@#&>:#OO+OOO+$####$@+++##+#%2:*;;*%$$$$;*@+O++@#%%=*=$@#%%O%;%$",
"%$#$*##$$#@XooO@$%@@@@@@@#++%:2;:;-$#$@#$$%#@+@####*;=;;$###@##-",
":;%%%#@%=%#. O+@#$%%%%%$##oo#:==-;-*%%####$$##@@@#$%==,>;#@+$%%-",
":=;-=:$%:-Oo.Xoo@%-:,,,;%$OX#*--=-:,:1%;=$#$$####%%=%%*=;$+O@%=:",
"=-%$-,;%$;#+@OXO@%::,21:=%#o$;;;-::-:3:-:%%%##$$%%%$%%%%#@+X@@%%",
"$%%=%=%:;*%@$$@@@$=:-:----#+$%:%$*%#=-::::::*$#$$#$%*$#@OoO @#$$",
"#$==$###%#$%%$#$@@O#@$$===+O%%$$@OoO$$%%**$%=:%@+++@%%$@O@  #++#",
"XXXO..Oo.++@##+Oo .O@+O++oOOXoX.. X    .OOXOO#@o..o o@+O+.      ",
"#o@$#%$##%4,:2=:;X+$%;,::-=;:;%$#.+@+O+@##$=:==:=+$%$%===$@OOOO+",
"@X+%%#@+$$$$:,:;;o@@@$*;:1:::;%%$o+OOoo++OO@@%%$$X+#$%%%%%%@OOOO",
"o O;$$$##-===522%O@#@+#$=::,:*;**X@@@@@OO+++@#$$#XXO+$$%%%=%@OXo",
"o o@###=$=;2=---%+@$#@+@@@#$$:;;$ #$#$#@O++@@@@@#XOOO@+@#$%%%#Oo",
"O.+$%%%$@#$*::,%=+@*#O+OOOo@##$$$o@$###@+@@+O+O++.XOXXXO##$%%=#@",
"@.X#%%$$#@@#&%#$$+o@@ooooXooO+++@O@%%###@@@@@++oo   X .XoO@%===$",
"$+@$$$$######@$$$XX+@OoOooXXooO@+o+-::;*%%$#**$#@ Xo ..oo+#%=-==",
"$+@###@+@++@+@$*%Oo++@++OooXXO+@@o+,,,,,,:,:*;:;$XOo.OX .O@#%%==",
"#oO++@@+o+Ooo++@$+++O+@++OXXXoO+@oO#:2:,:,4,%%=%#o+#O+O. O+#%%%$",
"o .XXXooX..XXXooO.XOX    ..   .XX.OOoO++#$@+@@OOo.XO@++X.Xoo@@@o"
};
