/* XPM */
static char *_cb2616f0b4e4195dcde725c8428d56f[] = {
/* columns rows colors chars-per-pixel */
"64 64 117 2 ",
"   c #5B657B",
".  c #636C85",
"X  c #676F8B",
"o  c #657083",
"O  c #67718B",
"+  c #6C758D",
"@  c #6E7A8E",
"#  c #6D7691",
"$  c #737C94",
"%  c #797E97",
"&  c #747D98",
"*  c #768196",
"=  c #798396",
"-  c #768099",
";  c #7B859B",
":  c #7E899C",
">  c #7C85A1",
",  c #7E88A0",
"<  c #80879E",
"1  c #828B9E",
"2  c #8087A2",
"3  c #838DA3",
"4  c #888EA6",
"5  c #858FAA",
"6  c #8691A4",
"7  c #8A93A5",
"8  c #8E98A7",
"9  c #8790A9",
"0  c #8C95AA",
"q  c #8E99AC",
"w  c #9197AB",
"e  c #929BAD",
"r  c #8F9AB2",
"t  c #949DB2",
"y  c #999FB2",
"u  c #94A0AE",
"i  c #99A1AD",
"p  c #96A2B4",
"a  c #9AA4B5",
"s  c #9EA8B6",
"d  c #96A2B9",
"f  c #9CA5BA",
"g  c #9DA9BB",
"h  c #A0A7B6",
"j  c #A1A9B6",
"k  c #A0A7BA",
"l  c #A3ACBD",
"z  c #A8AEBE",
"x  c #A5B0BE",
"c  c #A9B2BE",
"v  c #9FABC1",
"b  c #A4AEC2",
"n  c #A8AEC1",
"m  c #A5B2C3",
"M  c #ABB4C4",
"N  c #ADB8C6",
"B  c #A6B3C9",
"V  c #ACB6C9",
"C  c #ADBACB",
"Z  c #B0B7C6",
"A  c #B2BAC7",
"S  c #B1B6CA",
"D  c #B3BCCC",
"F  c #B8BECD",
"G  c #ADBAD0",
"H  c #B3BED1",
"J  c #B8BFD2",
"K  c #B4C0CE",
"L  c #BAC1CE",
"P  c #B4C2D3",
"I  c #BBC4D4",
"U  c #BCC9D6",
"Y  c #B5C5D9",
"T  c #BCC7D8",
"R  c #BDCADA",
"E  c #C1C7D4",
"W  c #C2CAD6",
"Q  c #C1C7D9",
"!  c #C3CCDB",
"~  c #C9CEDC",
"^  c #C5D0DE",
"/  c #CAD1DD",
"(  c #D1D3DF",
")  c #C5CEE0",
"_  c #C5D3E2",
"`  c #CBD5E3",
"'  c #CED9E6",
"]  c #CCD7E9",
"[  c #CDDBEA",
"{  c #D1D6E3",
"}  c #D3DAE6",
"|  c #D8DCE6",
" . c #D3DDEA",
".. c #D9DEEA",
"X. c #CEE0EE",
"o. c #D5E1ED",
"O. c #DBE2ED",
"+. c #D6E3F1",
"@. c #DBE6F2",
"#. c #D7E9F7",
"$. c #DDE9F5",
"%. c #DDEDF9",
"&. c #E0E5EE",
"*. c #E5E8EF",
"=. c #E2E6F1",
"-. c #E3EBF5",
";. c #E9EDF5",
":. c #E3EDF9",
">. c #E9EFF9",
",. c #EAF1F7",
"<. c #E4F2FC",
"1. c #EBF4FC",
"2. c #E7F8FF",
"3. c #EDFAFE",
"4. c #F1F6FD",
"5. c #F4FCFE",
"6. c #FCFEFF",
/* pixels */
"F S m n S J T Y I H K g p p p p e 7 u l M M s m m V K P S m M m g g l p q e s m N u g x P Y R ^ _ _ _ ' ' ` ( ~ W U I W I C N C ",
"S M l n S J Q H C H I M s p d p p 7 e g c N M M C G H P D M v a a q p s j l x M g g B C R _ _ ' ' ' X.' ` ~ ! R I U D I U N B N ",
"M m n n S J Q R C B C M s p f g b f p l n N C C C H H H V C l p u u s g s m M N m N B P Y _ _ X.o.' ' ' ` W W L K A x m N x x m ",
"v n M n B S S J J C V m n s f l n l s m N S M H G C S B m f s r u d g g s s n M N C N C Y _ _ ' | / ' ' ~ K M l x x s p a g g p ",
"q a n n B F S S F P S M l l l l B v f B S C M F S C m f p 7 0 q p p g s p s x l s g m C H R ^ ^ / ^ _ ^ U m e d g x p r d d u r ",
": w t f V b v b m H C M n l z M b v f f d s p 8 k B M k q 9 9 y p d g g s f s f p u p m C R R P U U R ^ R x p p s q e r a u q 6 ",
"1 w t v n b t d v b C b g l n n B B b g r 0 7 8 u l Z l p e t k v g s g s s s u 8 , q x C Y R T K K Y Y D g q 8 7 , 0 6 0 r 8 : ",
"; 2 5 t v b t d d f b m m b b b B B B b l t 8 i s f l f a e f l m g d s x g u 7 : , q p g K P U N m C m s f s 8 7 8 7 , 7 7 8 6 ",
"@ & , , 0 q q r f f s x M N M m m m C B C m p u l z g a s a l l x x B g f g p 7 - 6 q 8 q a m C B m m v d p p e 8 6 0 7 3 1 1 < ",
"# $ - @ : , r p p p g x M C K N m C C P G x s s M Z c m n z l z g g m g f v q 6 , 5 6 8 7 8 s m v v f f f e e e e 9 w 4 4 1 < = ",
"$ @ @ & * , q p f a m M C C U P P G K B m m x M M N S S M Z n n l s g a e r r w 5 0 6 q 8 0 i a p p p r r e e q q q q 0 3 2 ; & ",
"O # @ O * * , r d f m C K L I U K Y K B g x B C C V C S S l z n s s x u 0 w 7 r 9 7 3 7 6 7 e e 8 7 q 0 5 8 q d p r r 9 5 3 > & ",
"X . O + $ - > , q s N K P I R P Y G K P G N C C I K D G C n n l b k y w < 0 0 w r r 3 3 : 6 7 7 r , : 0 7 7 r r t t r 7 5 2 > & ",
"o . . + @ - * : 8 g m N K C H Y Y Y P P P P I L L I D C S B n l n n n y w 0 y t r r 6 1 < 1 6 7 6 6 6 r 7 q e p t e w 0 3 3 * & ",
"+   . + $ * * = 6 u x m G G P P P G P U Y R K P I Y K N S C n n n S Z e 4 0 y t e e 0 0 1 1 1 6 7 7 u 0 7 q t d d y e 0 6 7 3 = ",
"* + + $ : : : : 7 u g m C C G P K Y P Y U Y U Y U U I C N M n z M Z a 0 0 w y k d p r e e 3 < 1 : 8 p 6 ; w t d t y a a t e 8 3 ",
", @ * * : : , 6 8 i j c K I C P Y Y R R Y U R R U K K K N g Z n l a e t w w k n k v d e r q , * : 7 p q 1 u s s f a k a h w 7 7 ",
"6 : , : : = 6 6 7 i j l M C G P P Y Y U U W U U R I N m x a l S c f f e 7 w e h y y y w r r e , 3 q e d u u g x l f a k k e w 6 ",
"7 e p p 8 6 7 8 t a z B m V K P P P P Y U R W U I L C Z p r g B n k k w 3 3 4 4 2 w w r d v v e q p r f g x N N Z l l j h i q 7 ",
"e s p u 8 7 7 q e s l M C S D D P P P Y U U U C D D A M x g B M b n l y 4 % + % < 2 4 t l n f f v m m B M I P U K S l l h h e e ",
"s j p u u 8 q 8 q e f m n C P K K P P K C K K K K K N m l b b y y b b 0 < % + $ % % 4 t k k d M Y R R R ^ ' ` I Q T J F Z k h h ",
"c c x s p u u u q q r d m F I I K K P K C C C C K K C l d a a a e y e 3 < 4 4 < > > 2 9 e i l D R _ #.X.X._ / L ^ ` ~ ~ F n k k ",
"A c x x x x g s r r t f S H F I K U U U K C N m N C S f s f n n h h e 0 4 e e t > 2 9 t q 8 x N R _ +.[ _ _ W L } ~ ~ ( S n l n ",
"N c x s x c M x f r v B B C J S N K P P K N K C G G n l p g z Z l e e l y k k n t 5 r y e x c A U _ R R W ^ } / { T L Q S S k S ",
"s u s p s s m M j l m g B V H F K K P P K D K K A M b f r e n Z M h h n V Z n a d d e y f l A L U ^ ! S S ! ! Q Q / ` J H B S n ",
"p q q q u q e x l n B b B G G H K K C P K I K K N A b f 0 f M V F M n Z F J S S f a y z D K W W R ^ ! G m ! Q ~ ~ ( I S S S m M ",
"v p e p v g f C m S S B B C G H C C P C D I L A C D l M f S C I F E F Z J D S S s l l M F I ( o.[ [ ` K D I I ~ ~ Q F B B f v n ",
"d d p g N V M G H C J S C B B C B g C C K W L F n M M D Z m S W E Q ~ Q I I F C m M D K E ~ ' | ' ' / U U U W ! ~ Q S S V v b b ",
"v f b G m m B F H K L F S C M Z m m g m P T E I E L N K F D I I I / ` U T I I K G C W W / { | ..} { ( ^ ` / ` ! ~ Q S S S B B B ",
"n b v m M D E I I W L F I S S Z C C g m K ! W ~ W E N K C I U ^ ` ~ { / I N C J D K ! ^ | O...&.O...| ' .._ ) ! ! J J G V H S S ",
"S D F F I I W ~ ! Q I L L A M n C K N U ^ ~ ~ / / I A K U U U _ ` ! ' / R m C I I U / | O.*.*.;.-.=.o.| ..] _ ! T D F S S S S S ",
"J P J F L I W ! ! Q L A F A M A C U ! ` ` ` { { ~ L K I ! ! ` ' | } | ' _ C I ! ` ] | &.;.;.;.*.;.=.@.@.O.} ] ! I F F S S S S F ",
"S F S J F W ` ^ ^ I L A F z s A I ! ' } | } } | ` ^ W T K U } | O. .[ [ [ _ [ | ..=.=.-.1.4.>.>.,.=.-.=.+. .' ^ I I F S k n S S ",
"S F F F I ! W Q Q L L L L F K I ^ ' ' o. .o.} o...( ! ! ^ ' } |  .[ ' X.+.[  .o.O.-.:.:.4.6.6.2.1.%.%.:.$.| _ _ ! U F n k f S S ",
"H S Z F F T I I I S A W W ! ( / ' '  .[ o.O.[ ' | { ^ ! ] [ '  .[  .[ o.o.o.o.| ;.>.:.<.4.6.5.5.4.<.%.%.-.@.o.] Q I F a r r r b ",
"D F F F I T T P V k l ~ { ( ~ { { ' ' X.[  .' [ ' ` ] ! ) U ' ' o.@.@.@.@.@.o.-.>.1.<.1.5.5.5.5.3.<.<.<.1.-.@.[ ^ Z y 7 4 w w v ",
"z M A L E / U J S Z F /  .{ / ] } o.o.o.o.o.o.o.o. .} ` / K ) ` @.$.$.@.o.' [ +.$.%.<.1.5.5.6.6.5.3.3.3.2.>.$.] T m a 0 r y 4 k ",
"n S E W ~ ^ W D I J ! ~ ! { ~ ] [ $.$.+.#.o.O.@.o.O.o.| { ^ ` / o.+.#.@.o.o.+.+.[ $.:.2.3.5.6.6.5.5.5.5.5.<.@.] T M a t k S k y ",
"E W W ~ ~ / / / ` ~ ~ ` { ....[ o.%.1.-.:.$.O.;.X.o.X. ./ ^ U ^ ' o.@.@.+.$.#.@.$.<.2.3.3.5.6.6.5.6.6.5.2.<.#.[ R B v n n n S k ",
"L / ( ~ { ' ` { ` ^ ] } ..O... .+.$.-.:.1.%.&.*.o.[ X. .}  ._ R R ` o.@.+.#.$.:.:.<.2.3.5.5.6.6.5.5.5.3.<.<.#.' H G H Z k S F F ",
"~ | | ( { | { } { ` | { | &.=.@.,.5.4.4.1.1.-.&.&.} ' o.-.-.X. .o.@.o.#.#.%.%.%.%.%.<.2.2.<.5.6.6.5.5.3.<.<.<.O.T Y Y S m H F F ",
"( | &.| ` ..| [ ]  .] ] ] } -.4.4.5.5.2.:.*.O.-.*.o.' | o.-.$.$.1.$.%.%.%.<.%.%.2.<.#.%.>.5.5.5.5.5.5.5.3.<.%.%.] ) U ) ` / Q I ",
"&.O.&.| |  .[ ....} [ ] [ o.$.4.5.6.5.1.-.@.@.=.=.| | { ` O.=.,.1.-.:.%.<.<.$.+.%.%.<.:.4.5.6.6.5.5.6.5.3.2.<.%.1.&.` O.=.=.O. .",
"*.*.&.| o.| ..}  . .o.] { [ o.>.5.5.-.-.O.} } o...| / { } o.&.@.>.1.2.2.<.<.%.#.o.$.%.<.5.6.6.6.6.6.6.6.3.2.2.5.5.1...1.2.1.>.=.",
"=.=.O.O.O..... .{ ` ] ] ` .. .=.:.:.$.O.} ' ) ^ } { ( ( ` } o.O.-.5.3.>.$.<.:.<.<.1.<.4.5.5.6.6.6.6.6.5.6.5.5.5.3.>.-.5.6.4.>.-.",
";.=.O.@.O. .O...| ) Q ) Q ] ] @.:.#. .o.[ ) ! ` ] ^ / / ~ ` ' } O.@.$.#.$.<.1.1.,.3.1.4.5.6.6.6.6.6.6.6.5.6.5.5.5.1.6.6.6.5.4.;.",
">.=.=.........} ` ` ! U ^ { ] o.X.X.| } ' ^ ! ` ! ! ) / I ! { `  . .+.%.#.$.$.@.$.:.<.5.6.6.6.6.6.6.5.6.6.6.5.5.5.5.6.6.6.1.1.4.",
">.>.=..... .] } ) U ^ Q ` } ] [ [ ] ' ' ` _ R T I K I W W I W / ] } o.@.:.,.:.-.>.<.1.6.6.6.5.6.5.>.5.,.6.6.6.6.6.6.6.6.6.6.4.4.",
">.=.O.=...] { ` ~ Q ^ / ^ ) ] ] ` _ } ] ` ^ R Y Y P U U U K D K ) }  .O.@.-.-.>.1.1.6.6.6.6.6.6.5.1.1.@.1.5.6.6.6.6.6.6.6.5.4.4.",
";.=.O. .] { ` / ` ) ~ ~ ) ! ) _ ` ] [ ] ) ! R R Y U U I E A N S T U ' _ [  .@.>.5.,.5.6.6.6.6.6.5.6.3.>.-.4.6.6.6.6.6.6.6.6.4.4.",
"=.=. .] ` / ~ ! ~ Q ^ ! ^ ) ` ) ` { ` _ ^ R R P I U I L I E A z S U ^ ` _ o.@.:.1.,.4.5.6.6.6.6.6.6.5.5.5.5.5.5.3.5.6.5.6.6.,.;.",
"=.O. ...` ) ) Q Q Q ! W W Q ! Q ^ ~ / R I R P R I L U L A E A M S I R ^ _ [ @.;.;.%.3.5.3.,.5.6.6.6.6.5.5.3.5.5.3.5.3.3.4.1.1.-.",
"=.....{ ~ Q ! ! T U I K F P Q Q ! Q W U I K K K K K R ! E L L c C K Q ) ` ] ..@.-.:.2.5.3.3.3.6.6.6.5.1.$.<.#.2.4.3.1.2.<.<.%.@.",
"=.O...` ) ) Q W P I P C C H K K I I L I G G C C K K C P L x D S D I ~ ]  ... .o.=.:.:.-.-.1.3.6.5.;.-.1.2.%.,.,.2.<.1.2.<.<.$.=.",
"o.o.O. .) ) T Q I P K D C C C C D K K K K m m B G P H H S m J F S I ~ / | | } ' o.>.%.$.&.$.,.3.3.-.$.3.3.1.1.2.2.:.1.<.<.-.@.@.",
"o... .} ` ~ J J I P K B M M M S C D K L C C m v C C G V m M I I K I W / { ] ^ ^ ` @.@.@.o.@.-.1.4.1.,.<.1.3.%.,.:.-.-.%.:.-.$.o.",
"[ { { ` ) U I L F J G x v b m B S F H J C N m b m M N m m V Y P L P U U ^ R U R ^ ( ^ ' ` ` { | O.-.,.$.,.%.%.<.-.$.o.O.@.@.@.[ ",
"] ` ] ] ) I K K S S m b g g b b B M C M N C C M x s g x m N G G C N C P I L K K I W U L I I L W W ' +.O.-.-.&.@.@.@.o.o. .o.[ ' ",
"` } [ ) ) I G G m b b f k f f b m m B N x N C m f x m G M m B B N v d x m l m x N M M N N E E L ` ` } O.@.*.$.&.@.O.O.} ` / ^ ^ ",
"J Q U I U G C C M m n s v v f f f l m m M N l l s m M C C G m g m d 7 6 s l z p j x z M N K L U ^ ' ' ' [ +.o.o.O...} ^ I W I K ",
"C S K K I C C C n l n f k f f d f m v v M N m m g m B B N C m g g s 8 e l M m a s l l m C Y R R _ _ [ X. . .[ } o.o._ ^ U K K N ",
"Z S S S V K U K Z z l f k f d f g v v x m N N m m m N G C C m m p q 7 u i f s z x s l m G R R _ ' _ ' X.o.O.o.' ' ' ^ U U m x x ",
"m S D B V Y U R D m l a f f d d p p g x x m g m m m C C N B m N l s a a a s x Z m s v N K R _ _ _ _ [ o.o.o...' ' ^ _ ^ P C m g ",
"S F S Z S K R U I m m d e y d a u u s x M m a g m C G P C M C C m v m p p s l l m d x x N Y R _ ' _ ' ' } ' | ' ^ W U ^ R K m C "
};
