/* XPM */
static char *_34cdb4fd63444aaa15fa631c3fd4bf8[] = {
/* columns rows colors chars-per-pixel */
"64 64 52 1 ",
"  c #1E1C15",
". c #221E17",
"X c #231F18",
"o c #25221A",
"O c #29261E",
"+ c #2C281F",
"@ c #252525",
"# c #2B2720",
"$ c #2E2A22",
"% c #2B2B2B",
"& c #312E25",
"* c #332F28",
"= c #343126",
"- c #363229",
"; c #39362C",
": c #3D3A2E",
"> c #313131",
", c #3B3730",
"< c #3E3B31",
"1 c #3C3C3C",
"2 c #403D2F",
"3 c #413E32",
"4 c #454235",
"5 c #484537",
"6 c #464339",
"7 c #494639",
"8 c #4D4A3C",
"9 c #514E3E",
"0 c #4E4B41",
"q c #514E42",
"w c #555143",
"e c #595545",
"r c #5C5847",
"t c #565349",
"y c #59564A",
"u c #5D5A4C",
"i c #5F5C50",
"p c #615E4D",
"a c #615E52",
"s c #65614E",
"d c #68634F",
"f c #656255",
"g c #696555",
"h c #676458",
"j c #696659",
"k c #6D6A5D",
"l c #716C57",
"z c #706C59",
"x c #6F6C60",
"c c #716E61",
"v c #757264",
"b c #827F70",
/* pixels */
"%@%%>%>>@%%@@%@%,%>%%>%%@@1%%%%@@@>@@%@%>>%%@@@%%@@>%%%>@%%%%%@>",
"30*&=:O$*;;;-,$-&=#>-&*4<>;&O#X$46:>-$*-*$o$$&$-&,;*$$@;;<<<;**&",
"&-o*=2::69<2=--:-3-:-$346;3;$&@$%-:qw66ww8<:<<-<66tt67<0fiki88ww",
";oo::4658q65::3636333=483-<*&:;,#$28ww8www4>-<$,66iut67tihit6654",
"$oo:<6366w02:66:36:5<&<8<$---264#$38wq070t4*;;&,660iu66uufi66<<,",
"$oO*=<;:786:367333;66$,<;-*&;;63o$30q55,6y8<&>,01<1f060hu0<00666",
"&&#&;6;63;:;;:64;<;3<&,*33--;470*$>e06,<401<<6&056;qw8tjuy3t0088",
"<*$;35-<2;=;:3:::-;-:*4*1:;-*26w-$<6qq<36506<-,y<56t07qfi050tywt",
"2*$22:6;:<::3<;;;$*<6-6-83:::4<0;&1wq06qqq86<<0x600ju000060y000t",
"2&$6663&&-:;;;;<;$;4539308<73865&$4qqqqytw6;<40iqiqtt3tu0603000w",
"%;o$O$$XXooooXoO#XoOo#$&$$O$&-$o$,&<66556:<-&>,07t3<3,68<<3,,3;<",
"44,,;2;$&;>o#*,;$&&&-;,1#*,,*<,*<6*;<;*-:1,,$$1,*3,,6,t6>&-<,;,<",
"#+o$O$oXXXX Xo,$$&***&;@$**:;*;-*;-&-=$;<<:;-Xq6@$++@O$&$oOO#O$+",
">3;3633:-=*$,$o$<<44563<&4643;00<6i8qwquk9673:3<,646;<9u9434<<8<",
"&:-:3,2:--*=;OX#<<<4qw63<:<-3,604wu6880uy5<662<*2032<;wi873;;34:",
":-=<:2443:;,;$X&8540wt064<<<,-636tt;456w90566<<&396<5;494<:3-:3:",
"<;&2,284<*&:-*X-7w58ifh0;33<,<06w00,<99y600<44-&70623764,:;;&;:;",
"4<;2,46;*:-:*& &676qwukf3,&;,308uw3;*<<i0476<8;$<86q488622<:*;4;",
"<&33640=&-=**-O*7938088y33;,;8qq46;;<54tt45<68<&;868q873332*;<33",
";:47762:3;$;;:O*9w56<0yf3366,0fqw64*<<0hw50857:*:887a33346*;4472",
":-<2462=:**:;;$%48054665,;37<3t874<*-<whw0w885;&*4548;33:4==2;24",
"$O#&==$o##$&&*10;*<:-&>-$#*;;,-&*&$$$&66*4*<4-::$&=,&+-;&;+&-&+&",
"O;4-;--*&*&*;,,3&*-*&&*;*&;;%;%#&:>Oo&,<&;$*<==-&$O&$$=&-;&&;+++",
"o@6aaiaaiyqy0wtii0twwifwuttt3700<4-**<<;<-:4542;;*;::::325:22;;;",
"&X3hxfjhttq000yahitqjxjft000ttt006#3<<<:;;48942;224w85889r88822:",
"2O<afhhfi0000t00it00hhjhit00aiiit<O<*44:22;5w5=425489845879852:2",
"3#6uyiiyt01t000ut0ytffj06015tauu6<o3<90;;:;28e;55845542246598:;5",
";o3fytyyy0t0tytttihihxx01<60tuti0<o84y9:22=;48452;22::4982422224",
"-o3huyytufiituai0hvvvvfw8,3t03ttq<O4498<242=;894:;22=;49e5554845",
";X6fqw0tfvu06t0q8hbvvvufhq30160aw;O5744<24:+;5e52;;2=+2582282248",
"2o6i006wiu0t06180ivffywhku80<3<0w<+4544<444;54892222;=;255295588",
"=+:9qy0yiqtut047wtiufthvaq806*,3u6+::;<=24=;2:24:;2;=+=;4;=22;2=",
"o222222255744==2<5ww94492==2;&=;<6<ooO**&&&&=&-&+&&&+.++O+++++&+",
"$=$$$++&===2=+$=+292====&&+++o++$&&O&*::=2;;:;;:&:4=&O=&&$+&&;;*",
"8322225255542252;&4=555224::5555,*:<898945988942<$oO++===;=-2555",
"38982592285942224&428245455599e5<;:458ee9w99w9:4:$oo&==;:=2::225",
"238555958e9522524=55se59995wee555292589w9w55925:-=XoO;;;$+;;:4;:",
"2-535595289522255o52r9559558sde585959e998w954485:&XO++=-=+2;;::;",
"22889282552224592+4;99595955wrrr555252554445556<<&XO=$=;2=-42;22",
"22885=22552259595+<;4w5552559e995:;=;:82222695;:<=o&;-&=2=222222",
"8222222225:;2542:+;255545=5955558:--=;5222:276-;;&O=2==+-=822:25",
"22$23222442;5222:o$<98922;;52594222-44425:888922=&X-2;;=;;222429",
"+++=&&$+&&&&=$$&+O&O;:4;;$+&=::=::-&-;:&:=;::2--+=+++++++o++&=;:",
"$O$=&=-$+oOooO++&::OoO&XoO.O++&&-OOo+ooXX+oo+$oO.;4$++OO+&&+++o=",
"8-232552:2:=;==;;::;;:;==;:2222:3=;;:;&-:2&=222:&22;54:2;==22:42",
"22e89d989re8522;;55552245555995=&<<5e9288259sw9549989e955;24wer2",
"33r88srwssp9::22::42:77899e9r54=&<52w8555248w8458559rw8854889re4",
"33p32889rpw44255225422942459s99;O<858889522w88298884885555989rw2",
"2;52389rp993599e59248557455we98:&:4:89eeww57529sew84552:<5559rr2",
"--5328w8983235998545e855558e9e82&244559srr9953wsw99w994859245rr:",
"==8579e3533239529857e95555559ew2o:88954wse95078rwe998e89wdr489r2",
"2=9955eq952599529525er552555554:.;44985ws995979p55488855wplw9e92",
"*2w837w33827995247759p83259984;:O448748ee485erer524ww92449dsee82",
"3$&&o+&&=&&&=&++$&$&=:=#++&=&;O+;$&=$$&;&&=&-3:4;&&;=;&=&;::==:+",
"33-*#2-*&==;&+&+$-&=;3,*;&=;&&+24:&&$:,:-=+=3684;;=:::44;:<2::22",
"2733--0*;22$222232:23;2=242:22:242&&=&$37222w6q452;4;=::;352585:",
"taq73&3;3ww,387380988;&7rr999558r5242=&9u9qeuus00545<;;5q70wwqt8",
"iu030&,28ee83q0789e7q2&9re59954598252=&9890eywqeu088<**5iy70w00q",
"ti333*#,ewe0333378800;&7r995959555552==863quq79siw940--47<8tfq8y",
"tq037-33uae8te388w77r:=8r999925284252++8::9wquuiyie99**7880yqw08",
"qja0w208wudwuy3;3779e;=5e9255522e9595&&8588ew6wuew9e8::88fuuuut8",
"yhw83$3378uyee835749e2$e925582:4e9585=$55yqq349pi9q9w::0ttjjhw0y",
"yyw70-0997wyyusy9w508;+s99595=:58e5822$8ew633wwwq6w59<*9wjitiiyw",
"wuuue2t798eksgzdw9407:;959554;;245552=$2066:3wuw65w67&&7yc8whgiq"
};
